<mxfile host="app.diagrams.net" modified="2024-05-29T13:12:35.149Z" agent="Mozilla/5.0 (X11; Ubuntu; Linux x86_64; rv:126.0) Gecko/20100101 Firefox/126.0" etag="LMmHqHsKBHQzoTkqzVSL" version="24.4.9" type="github">
  <diagram name="Page-1" id="5oeKD0SbEv5h8y91ilxW">
    <mxGraphModel dx="3048" dy="911" grid="1" gridSize="10" guides="1" tooltips="1" connect="1" arrows="1" fold="1" page="1" pageScale="1" pageWidth="1333" pageHeight="898" math="0" shadow="0">
      <root>
        <mxCell id="0" />
        <mxCell id="1" parent="0" />
        <mxCell id="FPTnSwzppv17P6COB9SP-1" value="AWS Cloud" style="points=[[0,0],[0.25,0],[0.5,0],[0.75,0],[1,0],[1,0.25],[1,0.5],[1,0.75],[1,1],[0.75,1],[0.5,1],[0.25,1],[0,1],[0,0.75],[0,0.5],[0,0.25]];outlineConnect=0;gradientColor=none;html=1;whiteSpace=wrap;fontSize=12;fontStyle=0;container=1;pointerEvents=0;collapsible=0;recursiveResize=0;shape=mxgraph.aws4.group;grIcon=mxgraph.aws4.group_aws_cloud_alt;strokeColor=#232F3E;fillColor=none;verticalAlign=top;align=left;spacingLeft=30;fontColor=#232F3E;dashed=0;" parent="1" vertex="1">
          <mxGeometry x="40" y="50" width="1160" height="710" as="geometry" />
        </mxCell>
        <mxCell id="FPTnSwzppv17P6COB9SP-2" value="Region" style="points=[[0,0],[0.25,0],[0.5,0],[0.75,0],[1,0],[1,0.25],[1,0.5],[1,0.75],[1,1],[0.75,1],[0.5,1],[0.25,1],[0,1],[0,0.75],[0,0.5],[0,0.25]];outlineConnect=0;gradientColor=none;html=1;whiteSpace=wrap;fontSize=12;fontStyle=0;container=1;pointerEvents=0;collapsible=0;recursiveResize=0;shape=mxgraph.aws4.group;grIcon=mxgraph.aws4.group_region;strokeColor=#00A4A6;fillColor=none;verticalAlign=top;align=left;spacingLeft=30;fontColor=#147EBA;dashed=1;" parent="FPTnSwzppv17P6COB9SP-1" vertex="1">
          <mxGeometry x="30" y="30" width="1090" height="640" as="geometry" />
        </mxCell>
        <mxCell id="FPTnSwzppv17P6COB9SP-3" value="VPC" style="points=[[0,0],[0.25,0],[0.5,0],[0.75,0],[1,0],[1,0.25],[1,0.5],[1,0.75],[1,1],[0.75,1],[0.5,1],[0.25,1],[0,1],[0,0.75],[0,0.5],[0,0.25]];outlineConnect=0;gradientColor=none;html=1;whiteSpace=wrap;fontSize=12;fontStyle=0;container=1;pointerEvents=0;collapsible=0;recursiveResize=0;shape=mxgraph.aws4.group;grIcon=mxgraph.aws4.group_vpc2;strokeColor=#8C4FFF;fillColor=none;verticalAlign=top;align=left;spacingLeft=30;fontColor=#AAB7B8;dashed=0;" parent="FPTnSwzppv17P6COB9SP-2" vertex="1">
          <mxGeometry x="320" y="20" width="720" height="500" as="geometry" />
        </mxCell>
        <mxCell id="FPTnSwzppv17P6COB9SP-4" value="Availability Zone" style="fillColor=none;strokeColor=#147EBA;dashed=1;verticalAlign=top;fontStyle=0;fontColor=#147EBA;whiteSpace=wrap;html=1;direction=east;" parent="FPTnSwzppv17P6COB9SP-3" vertex="1">
          <mxGeometry x="50" y="20" width="620" height="140" as="geometry" />
        </mxCell>
        <mxCell id="FPTnSwzppv17P6COB9SP-5" value="Private subnet" style="points=[[0,0],[0.25,0],[0.5,0],[0.75,0],[1,0],[1,0.25],[1,0.5],[1,0.75],[1,1],[0.75,1],[0.5,1],[0.25,1],[0,1],[0,0.75],[0,0.5],[0,0.25]];outlineConnect=0;gradientColor=none;html=1;whiteSpace=wrap;fontSize=12;fontStyle=0;container=1;pointerEvents=0;collapsible=0;recursiveResize=0;shape=mxgraph.aws4.group;grIcon=mxgraph.aws4.group_security_group;grStroke=0;strokeColor=#00A4A6;fillColor=#E6F6F7;verticalAlign=top;align=left;spacingLeft=30;fontColor=#147EBA;dashed=0;" parent="FPTnSwzppv17P6COB9SP-3" vertex="1">
          <mxGeometry x="220" y="30" width="280" height="120" as="geometry" />
        </mxCell>
        <mxCell id="FPTnSwzppv17P6COB9SP-6" value="Public subnet" style="points=[[0,0],[0.25,0],[0.5,0],[0.75,0],[1,0],[1,0.25],[1,0.5],[1,0.75],[1,1],[0.75,1],[0.5,1],[0.25,1],[0,1],[0,0.75],[0,0.5],[0,0.25]];outlineConnect=0;gradientColor=none;html=1;whiteSpace=wrap;fontSize=12;fontStyle=0;container=1;pointerEvents=0;collapsible=0;recursiveResize=0;shape=mxgraph.aws4.group;grIcon=mxgraph.aws4.group_security_group;grStroke=0;strokeColor=#7AA116;fillColor=#F2F6E8;verticalAlign=top;align=left;spacingLeft=30;fontColor=#248814;dashed=0;" parent="FPTnSwzppv17P6COB9SP-3" vertex="1">
          <mxGeometry x="70" y="30" width="130" height="120" as="geometry" />
        </mxCell>
        <mxCell id="FPTnSwzppv17P6COB9SP-7" value="Private subnet" style="points=[[0,0],[0.25,0],[0.5,0],[0.75,0],[1,0],[1,0.25],[1,0.5],[1,0.75],[1,1],[0.75,1],[0.5,1],[0.25,1],[0,1],[0,0.75],[0,0.5],[0,0.25]];outlineConnect=0;gradientColor=none;html=1;whiteSpace=wrap;fontSize=12;fontStyle=0;container=1;pointerEvents=0;collapsible=0;recursiveResize=0;shape=mxgraph.aws4.group;grIcon=mxgraph.aws4.group_security_group;grStroke=0;strokeColor=#00A4A6;fillColor=#E6F6F7;verticalAlign=top;align=left;spacingLeft=30;fontColor=#147EBA;dashed=0;" parent="FPTnSwzppv17P6COB9SP-3" vertex="1">
          <mxGeometry x="520" y="30" width="130" height="120" as="geometry" />
        </mxCell>
        <mxCell id="FPTnSwzppv17P6COB9SP-88" value="Redis" style="text;html=1;align=center;verticalAlign=middle;whiteSpace=wrap;rounded=0;" parent="FPTnSwzppv17P6COB9SP-7" vertex="1">
          <mxGeometry x="30" y="90" width="60" height="30" as="geometry" />
        </mxCell>
        <mxCell id="FPTnSwzppv17P6COB9SP-8" value="Availability Zone" style="fillColor=none;strokeColor=#147EBA;dashed=1;verticalAlign=top;fontStyle=0;fontColor=#147EBA;whiteSpace=wrap;html=1;direction=east;" parent="FPTnSwzppv17P6COB9SP-3" vertex="1">
          <mxGeometry x="50" y="180" width="620" height="140" as="geometry" />
        </mxCell>
        <mxCell id="FPTnSwzppv17P6COB9SP-9" value="Availability Zone" style="fillColor=none;strokeColor=#147EBA;dashed=1;verticalAlign=top;fontStyle=0;fontColor=#147EBA;whiteSpace=wrap;html=1;direction=east;" parent="FPTnSwzppv17P6COB9SP-3" vertex="1">
          <mxGeometry x="50" y="340" width="620" height="140" as="geometry" />
        </mxCell>
        <mxCell id="FPTnSwzppv17P6COB9SP-10" value="Public subnet" style="points=[[0,0],[0.25,0],[0.5,0],[0.75,0],[1,0],[1,0.25],[1,0.5],[1,0.75],[1,1],[0.75,1],[0.5,1],[0.25,1],[0,1],[0,0.75],[0,0.5],[0,0.25]];outlineConnect=0;gradientColor=none;html=1;whiteSpace=wrap;fontSize=12;fontStyle=0;container=1;pointerEvents=0;collapsible=0;recursiveResize=0;shape=mxgraph.aws4.group;grIcon=mxgraph.aws4.group_security_group;grStroke=0;strokeColor=#7AA116;fillColor=#F2F6E8;verticalAlign=top;align=left;spacingLeft=30;fontColor=#248814;dashed=0;" parent="FPTnSwzppv17P6COB9SP-3" vertex="1">
          <mxGeometry x="70" y="190" width="130" height="120" as="geometry" />
        </mxCell>
        <mxCell id="FPTnSwzppv17P6COB9SP-11" value="" style="sketch=0;outlineConnect=0;fontColor=#232F3E;gradientColor=none;fillColor=#8C4FFF;strokeColor=none;dashed=0;verticalLabelPosition=bottom;verticalAlign=top;align=center;html=1;fontSize=12;fontStyle=0;aspect=fixed;pointerEvents=1;shape=mxgraph.aws4.application_load_balancer;" parent="FPTnSwzppv17P6COB9SP-10" vertex="1">
          <mxGeometry x="40" y="45" width="50" height="50" as="geometry" />
        </mxCell>
        <mxCell id="FPTnSwzppv17P6COB9SP-12" value="ALB" style="text;html=1;align=center;verticalAlign=middle;whiteSpace=wrap;rounded=0;" parent="FPTnSwzppv17P6COB9SP-10" vertex="1">
          <mxGeometry x="35" y="90" width="60" height="30" as="geometry" />
        </mxCell>
        <mxCell id="FPTnSwzppv17P6COB9SP-13" value="Public subnet" style="points=[[0,0],[0.25,0],[0.5,0],[0.75,0],[1,0],[1,0.25],[1,0.5],[1,0.75],[1,1],[0.75,1],[0.5,1],[0.25,1],[0,1],[0,0.75],[0,0.5],[0,0.25]];outlineConnect=0;gradientColor=none;html=1;whiteSpace=wrap;fontSize=12;fontStyle=0;container=1;pointerEvents=0;collapsible=0;recursiveResize=0;shape=mxgraph.aws4.group;grIcon=mxgraph.aws4.group_security_group;grStroke=0;strokeColor=#7AA116;fillColor=#F2F6E8;verticalAlign=top;align=left;spacingLeft=30;fontColor=#248814;dashed=0;" parent="FPTnSwzppv17P6COB9SP-3" vertex="1">
          <mxGeometry x="70" y="350" width="130" height="120" as="geometry" />
        </mxCell>
        <mxCell id="FPTnSwzppv17P6COB9SP-14" value="Private subnet" style="points=[[0,0],[0.25,0],[0.5,0],[0.75,0],[1,0],[1,0.25],[1,0.5],[1,0.75],[1,1],[0.75,1],[0.5,1],[0.25,1],[0,1],[0,0.75],[0,0.5],[0,0.25]];outlineConnect=0;gradientColor=none;html=1;whiteSpace=wrap;fontSize=12;fontStyle=0;container=1;pointerEvents=0;collapsible=0;recursiveResize=0;shape=mxgraph.aws4.group;grIcon=mxgraph.aws4.group_security_group;grStroke=0;strokeColor=#00A4A6;fillColor=#E6F6F7;verticalAlign=top;align=left;spacingLeft=30;fontColor=#147EBA;dashed=0;" parent="FPTnSwzppv17P6COB9SP-3" vertex="1">
          <mxGeometry x="220" y="190" width="280" height="120" as="geometry" />
        </mxCell>
        <mxCell id="FPTnSwzppv17P6COB9SP-15" value="Private subnet" style="points=[[0,0],[0.25,0],[0.5,0],[0.75,0],[1,0],[1,0.25],[1,0.5],[1,0.75],[1,1],[0.75,1],[0.5,1],[0.25,1],[0,1],[0,0.75],[0,0.5],[0,0.25]];outlineConnect=0;gradientColor=none;html=1;whiteSpace=wrap;fontSize=12;fontStyle=0;container=1;pointerEvents=0;collapsible=0;recursiveResize=0;shape=mxgraph.aws4.group;grIcon=mxgraph.aws4.group_security_group;grStroke=0;strokeColor=#00A4A6;fillColor=#E6F6F7;verticalAlign=top;align=left;spacingLeft=30;fontColor=#147EBA;dashed=0;" parent="FPTnSwzppv17P6COB9SP-3" vertex="1">
          <mxGeometry x="220" y="350" width="280" height="120" as="geometry" />
        </mxCell>
        <mxCell id="FPTnSwzppv17P6COB9SP-16" value="Private subnet" style="points=[[0,0],[0.25,0],[0.5,0],[0.75,0],[1,0],[1,0.25],[1,0.5],[1,0.75],[1,1],[0.75,1],[0.5,1],[0.25,1],[0,1],[0,0.75],[0,0.5],[0,0.25]];outlineConnect=0;gradientColor=none;html=1;whiteSpace=wrap;fontSize=12;fontStyle=0;container=1;pointerEvents=0;collapsible=0;recursiveResize=0;shape=mxgraph.aws4.group;grIcon=mxgraph.aws4.group_security_group;grStroke=0;strokeColor=#00A4A6;fillColor=#E6F6F7;verticalAlign=top;align=left;spacingLeft=30;fontColor=#147EBA;dashed=0;" parent="FPTnSwzppv17P6COB9SP-3" vertex="1">
          <mxGeometry x="520" y="190" width="130" height="125" as="geometry" />
        </mxCell>
        <mxCell id="FPTnSwzppv17P6COB9SP-17" value="Private subnet" style="points=[[0,0],[0.25,0],[0.5,0],[0.75,0],[1,0],[1,0.25],[1,0.5],[1,0.75],[1,1],[0.75,1],[0.5,1],[0.25,1],[0,1],[0,0.75],[0,0.5],[0,0.25]];outlineConnect=0;gradientColor=none;html=1;whiteSpace=wrap;fontSize=12;fontStyle=0;container=1;pointerEvents=0;collapsible=0;recursiveResize=0;shape=mxgraph.aws4.group;grIcon=mxgraph.aws4.group_security_group;grStroke=0;strokeColor=#00A4A6;fillColor=#E6F6F7;verticalAlign=top;align=left;spacingLeft=30;fontColor=#147EBA;dashed=0;" parent="FPTnSwzppv17P6COB9SP-3" vertex="1">
          <mxGeometry x="520" y="350" width="130" height="120" as="geometry" />
        </mxCell>
        <mxCell id="FPTnSwzppv17P6COB9SP-18" value="" style="sketch=0;outlineConnect=0;fontColor=#232F3E;gradientColor=none;fillColor=#8C4FFF;strokeColor=none;dashed=0;verticalLabelPosition=bottom;verticalAlign=top;align=center;html=1;fontSize=12;fontStyle=0;aspect=fixed;pointerEvents=1;shape=mxgraph.aws4.nat_gateway;" parent="FPTnSwzppv17P6COB9SP-3" vertex="1">
          <mxGeometry x="110" y="65" width="50" height="50" as="geometry" />
        </mxCell>
        <mxCell id="FPTnSwzppv17P6COB9SP-19" value="" style="sketch=0;outlineConnect=0;fontColor=#232F3E;gradientColor=none;fillColor=#8C4FFF;strokeColor=none;dashed=0;verticalLabelPosition=bottom;verticalAlign=top;align=center;html=1;fontSize=12;fontStyle=0;aspect=fixed;pointerEvents=1;shape=mxgraph.aws4.nat_gateway;" parent="FPTnSwzppv17P6COB9SP-3" vertex="1">
          <mxGeometry x="110" y="385" width="50" height="50" as="geometry" />
        </mxCell>
        <mxCell id="FPTnSwzppv17P6COB9SP-20" value="NAT Gateway" style="text;html=1;align=center;verticalAlign=middle;whiteSpace=wrap;rounded=0;" parent="FPTnSwzppv17P6COB9SP-3" vertex="1">
          <mxGeometry x="85" y="435" width="105" height="30" as="geometry" />
        </mxCell>
        <mxCell id="FPTnSwzppv17P6COB9SP-21" value="NAT Gateway" style="text;html=1;align=center;verticalAlign=middle;whiteSpace=wrap;rounded=0;" parent="FPTnSwzppv17P6COB9SP-3" vertex="1">
          <mxGeometry x="85" y="115" width="105" height="30" as="geometry" />
        </mxCell>
        <mxCell id="FPTnSwzppv17P6COB9SP-22" value="" style="sketch=0;points=[[0,0,0],[0.25,0,0],[0.5,0,0],[0.75,0,0],[1,0,0],[0,1,0],[0.25,1,0],[0.5,1,0],[0.75,1,0],[1,1,0],[0,0.25,0],[0,0.5,0],[0,0.75,0],[1,0.25,0],[1,0.5,0],[1,0.75,0]];outlineConnect=0;fontColor=#232F3E;fillColor=#C925D1;strokeColor=#ffffff;dashed=0;verticalLabelPosition=bottom;verticalAlign=top;align=center;html=1;fontSize=12;fontStyle=0;aspect=fixed;shape=mxgraph.aws4.resourceIcon;resIcon=mxgraph.aws4.rds;" parent="FPTnSwzppv17P6COB9SP-3" vertex="1">
          <mxGeometry x="560" y="230" width="50" height="50" as="geometry" />
        </mxCell>
        <mxCell id="FPTnSwzppv17P6COB9SP-23" value="PostgreSQL" style="text;html=1;align=center;verticalAlign=middle;whiteSpace=wrap;rounded=0;" parent="FPTnSwzppv17P6COB9SP-3" vertex="1">
          <mxGeometry x="555" y="275" width="60" height="30" as="geometry" />
        </mxCell>
        <mxCell id="FPTnSwzppv17P6COB9SP-87" value="" style="sketch=0;points=[[0,0,0],[0.25,0,0],[0.5,0,0],[0.75,0,0],[1,0,0],[0,1,0],[0.25,1,0],[0.5,1,0],[0.75,1,0],[1,1,0],[0,0.25,0],[0,0.5,0],[0,0.75,0],[1,0.25,0],[1,0.5,0],[1,0.75,0]];outlineConnect=0;fontColor=#232F3E;fillColor=#C925D1;strokeColor=#ffffff;dashed=0;verticalLabelPosition=bottom;verticalAlign=top;align=center;html=1;fontSize=12;fontStyle=0;aspect=fixed;shape=mxgraph.aws4.resourceIcon;resIcon=mxgraph.aws4.elasticache;" parent="FPTnSwzppv17P6COB9SP-3" vertex="1">
          <mxGeometry x="555" y="70" width="50" height="50" as="geometry" />
        </mxCell>
        <mxCell id="FPTnSwzppv17P6COB9SP-24" value="" style="sketch=0;points=[[0,0,0],[0.25,0,0],[0.5,0,0],[0.75,0,0],[1,0,0],[0,1,0],[0.25,1,0],[0.5,1,0],[0.75,1,0],[1,1,0],[0,0.25,0],[0,0.5,0],[0,0.75,0],[1,0.25,0],[1,0.5,0],[1,0.75,0]];outlineConnect=0;fontColor=#232F3E;fillColor=#ED7100;strokeColor=#ffffff;dashed=0;verticalLabelPosition=bottom;verticalAlign=top;align=center;html=1;fontSize=12;fontStyle=0;aspect=fixed;shape=mxgraph.aws4.resourceIcon;resIcon=mxgraph.aws4.ecr;" parent="FPTnSwzppv17P6COB9SP-2" vertex="1">
          <mxGeometry x="590" y="550" width="55" height="55" as="geometry" />
        </mxCell>
        <mxCell id="FPTnSwzppv17P6COB9SP-25" value="" style="sketch=0;points=[[0,0,0],[0.25,0,0],[0.5,0,0],[0.75,0,0],[1,0,0],[0,1,0],[0.25,1,0],[0.5,1,0],[0.75,1,0],[1,1,0],[0,0.25,0],[0,0.5,0],[0,0.75,0],[1,0.25,0],[1,0.5,0],[1,0.75,0]];outlineConnect=0;fontColor=#232F3E;fillColor=#8C4FFF;strokeColor=#ffffff;dashed=0;verticalLabelPosition=bottom;verticalAlign=top;align=center;html=1;fontSize=12;fontStyle=0;aspect=fixed;shape=mxgraph.aws4.resourceIcon;resIcon=mxgraph.aws4.cloudfront;" parent="FPTnSwzppv17P6COB9SP-2" vertex="1">
          <mxGeometry x="185" y="255" width="55" height="55" as="geometry" />
        </mxCell>
        <mxCell id="FPTnSwzppv17P6COB9SP-26" value="" style="sketch=0;points=[[0,0,0],[0.25,0,0],[0.5,0,0],[0.75,0,0],[1,0,0],[0,1,0],[0.25,1,0],[0.5,1,0],[0.75,1,0],[1,1,0],[0,0.25,0],[0,0.5,0],[0,0.75,0],[1,0.25,0],[1,0.5,0],[1,0.75,0]];outlineConnect=0;fontColor=#232F3E;fillColor=#DD344C;strokeColor=#ffffff;dashed=0;verticalLabelPosition=bottom;verticalAlign=top;align=center;html=1;fontSize=12;fontStyle=0;aspect=fixed;shape=mxgraph.aws4.resourceIcon;resIcon=mxgraph.aws4.certificate_manager_3;" parent="FPTnSwzppv17P6COB9SP-2" vertex="1">
          <mxGeometry x="192.5" y="365" width="55" height="55" as="geometry" />
        </mxCell>
        <mxCell id="FPTnSwzppv17P6COB9SP-27" value="Cloudfront" style="text;html=1;align=center;verticalAlign=middle;whiteSpace=wrap;rounded=0;" parent="FPTnSwzppv17P6COB9SP-2" vertex="1">
          <mxGeometry x="185" y="305" width="60" height="30" as="geometry" />
        </mxCell>
        <mxCell id="FPTnSwzppv17P6COB9SP-28" style="edgeStyle=orthogonalEdgeStyle;rounded=0;orthogonalLoop=1;jettySize=auto;html=1;" parent="FPTnSwzppv17P6COB9SP-2" source="FPTnSwzppv17P6COB9SP-29" target="FPTnSwzppv17P6COB9SP-25" edge="1">
          <mxGeometry relative="1" as="geometry" />
        </mxCell>
        <mxCell id="FPTnSwzppv17P6COB9SP-29" value="" style="sketch=0;points=[[0,0,0],[0.25,0,0],[0.5,0,0],[0.75,0,0],[1,0,0],[0,1,0],[0.25,1,0],[0.5,1,0],[0.75,1,0],[1,1,0],[0,0.25,0],[0,0.5,0],[0,0.75,0],[1,0.25,0],[1,0.5,0],[1,0.75,0]];outlineConnect=0;fontColor=#232F3E;fillColor=#8C4FFF;strokeColor=#ffffff;dashed=0;verticalLabelPosition=bottom;verticalAlign=top;align=center;html=1;fontSize=12;fontStyle=0;aspect=fixed;shape=mxgraph.aws4.resourceIcon;resIcon=mxgraph.aws4.route_53;" parent="FPTnSwzppv17P6COB9SP-2" vertex="1">
          <mxGeometry x="60" y="255" width="55" height="55" as="geometry" />
        </mxCell>
        <mxCell id="FPTnSwzppv17P6COB9SP-30" style="edgeStyle=orthogonalEdgeStyle;rounded=0;orthogonalLoop=1;jettySize=auto;html=1;entryX=0.583;entryY=0.5;entryDx=0;entryDy=0;entryPerimeter=0;" parent="FPTnSwzppv17P6COB9SP-2" source="FPTnSwzppv17P6COB9SP-26" target="FPTnSwzppv17P6COB9SP-27" edge="1">
          <mxGeometry relative="1" as="geometry" />
        </mxCell>
        <mxCell id="FPTnSwzppv17P6COB9SP-31" value="Route53&lt;div&gt;&lt;br&gt;&lt;/div&gt;" style="text;html=1;align=center;verticalAlign=middle;whiteSpace=wrap;rounded=0;" parent="FPTnSwzppv17P6COB9SP-2" vertex="1">
          <mxGeometry x="60" y="310" width="60" height="30" as="geometry" />
        </mxCell>
        <mxCell id="FPTnSwzppv17P6COB9SP-32" value="SSL" style="text;html=1;align=center;verticalAlign=middle;whiteSpace=wrap;rounded=0;" parent="FPTnSwzppv17P6COB9SP-2" vertex="1">
          <mxGeometry x="190" y="420" width="60" height="30" as="geometry" />
        </mxCell>
        <mxCell id="FPTnSwzppv17P6COB9SP-33" style="edgeStyle=orthogonalEdgeStyle;rounded=0;orthogonalLoop=1;jettySize=auto;html=1;dashed=1;" parent="FPTnSwzppv17P6COB9SP-2" source="FPTnSwzppv17P6COB9SP-34" target="FPTnSwzppv17P6COB9SP-11" edge="1">
          <mxGeometry relative="1" as="geometry" />
        </mxCell>
        <mxCell id="FPTnSwzppv17P6COB9SP-34" value="" style="sketch=0;points=[[0,0,0],[0.25,0,0],[0.5,0,0],[0.75,0,0],[1,0,0],[0,1,0],[0.25,1,0],[0.5,1,0],[0.75,1,0],[1,1,0],[0,0.25,0],[0,0.5,0],[0,0.75,0],[1,0.25,0],[1,0.5,0],[1,0.75,0]];outlineConnect=0;fontColor=#232F3E;fillColor=#DD344C;strokeColor=#ffffff;dashed=0;verticalLabelPosition=bottom;verticalAlign=top;align=center;html=1;fontSize=12;fontStyle=0;aspect=fixed;shape=mxgraph.aws4.resourceIcon;resIcon=mxgraph.aws4.waf;" parent="FPTnSwzppv17P6COB9SP-2" vertex="1">
          <mxGeometry x="190" y="160" width="55" height="55" as="geometry" />
        </mxCell>
        <mxCell id="FPTnSwzppv17P6COB9SP-35" value="WAF" style="text;html=1;align=center;verticalAlign=middle;whiteSpace=wrap;rounded=0;" parent="FPTnSwzppv17P6COB9SP-2" vertex="1">
          <mxGeometry x="190" y="211" width="60" height="30" as="geometry" />
        </mxCell>
        <mxCell id="FPTnSwzppv17P6COB9SP-36" style="edgeStyle=orthogonalEdgeStyle;rounded=0;orthogonalLoop=1;jettySize=auto;html=1;entryX=0;entryY=0.56;entryDx=0;entryDy=0;entryPerimeter=0;" parent="FPTnSwzppv17P6COB9SP-2" source="FPTnSwzppv17P6COB9SP-25" target="FPTnSwzppv17P6COB9SP-11" edge="1">
          <mxGeometry relative="1" as="geometry" />
        </mxCell>
        <mxCell id="FPTnSwzppv17P6COB9SP-37" value="" style="sketch=0;points=[[0,0,0],[0.25,0,0],[0.5,0,0],[0.75,0,0],[1,0,0],[0,1,0],[0.25,1,0],[0.5,1,0],[0.75,1,0],[1,1,0],[0,0.25,0],[0,0.5,0],[0,0.75,0],[1,0.25,0],[1,0.5,0],[1,0.75,0]];outlineConnect=0;fontColor=#232F3E;fillColor=#ED7100;strokeColor=#ffffff;dashed=0;verticalLabelPosition=bottom;verticalAlign=top;align=center;html=1;fontSize=12;fontStyle=0;aspect=fixed;shape=mxgraph.aws4.resourceIcon;resIcon=mxgraph.aws4.eks;" parent="FPTnSwzppv17P6COB9SP-2" vertex="1">
          <mxGeometry x="670" y="550" width="55" height="55" as="geometry" />
        </mxCell>
        <mxCell id="FPTnSwzppv17P6COB9SP-38" value="ECR" style="text;html=1;align=center;verticalAlign=middle;whiteSpace=wrap;rounded=0;" parent="FPTnSwzppv17P6COB9SP-2" vertex="1">
          <mxGeometry x="585" y="605" width="60" height="30" as="geometry" />
        </mxCell>
        <mxCell id="FPTnSwzppv17P6COB9SP-39" value="EKS" style="text;html=1;align=center;verticalAlign=middle;whiteSpace=wrap;rounded=0;" parent="FPTnSwzppv17P6COB9SP-2" vertex="1">
          <mxGeometry x="670" y="600" width="60" height="30" as="geometry" />
        </mxCell>
        <mxCell id="FPTnSwzppv17P6COB9SP-40" value="" style="rounded=1;arcSize=10;dashed=1;fillColor=none;gradientColor=none;dashPattern=1 1;strokeWidth=2;" parent="FPTnSwzppv17P6COB9SP-2" vertex="1">
          <mxGeometry x="560" y="535" width="200" height="95" as="geometry" />
        </mxCell>
        <mxCell id="FPTnSwzppv17P6COB9SP-42" style="edgeStyle=orthogonalEdgeStyle;rounded=0;orthogonalLoop=1;jettySize=auto;html=1;entryX=0.516;entryY=1;entryDx=0;entryDy=0;entryPerimeter=0;dashed=1;" parent="FPTnSwzppv17P6COB9SP-2" source="FPTnSwzppv17P6COB9SP-40" target="FPTnSwzppv17P6COB9SP-9" edge="1">
          <mxGeometry relative="1" as="geometry">
            <Array as="points">
              <mxPoint x="660" y="500" />
            </Array>
          </mxGeometry>
        </mxCell>
        <mxCell id="FPTnSwzppv17P6COB9SP-44" style="edgeStyle=orthogonalEdgeStyle;rounded=0;orthogonalLoop=1;jettySize=auto;html=1;exitX=0.5;exitY=1;exitDx=0;exitDy=0;" parent="FPTnSwzppv17P6COB9SP-2" edge="1">
          <mxGeometry relative="1" as="geometry">
            <mxPoint x="775" y="630" as="sourcePoint" />
            <mxPoint x="775" y="630" as="targetPoint" />
          </mxGeometry>
        </mxCell>
        <mxCell id="FPTnSwzppv17P6COB9SP-45" value="" style="outlineConnect=0;gradientColor=none;html=1;whiteSpace=wrap;fontSize=12;fontStyle=0;strokeColor=#FF9900;fillColor=none;verticalAlign=top;align=center;fontColor=#FF9900;dashed=0;spacingTop=3;" parent="1" vertex="1">
          <mxGeometry x="630" y="150" width="240" height="410" as="geometry" />
        </mxCell>
        <mxCell id="FPTnSwzppv17P6COB9SP-46" value="" style="sketch=0;points=[[0,0,0],[0.25,0,0],[0.5,0,0],[0.75,0,0],[1,0,0],[0,1,0],[0.25,1,0],[0.5,1,0],[0.75,1,0],[1,1,0],[0,0.25,0],[0,0.5,0],[0,0.75,0],[1,0.25,0],[1,0.5,0],[1,0.75,0]];outlineConnect=0;fontColor=#232F3E;fillColor=#ED7100;strokeColor=#ffffff;dashed=0;verticalLabelPosition=bottom;verticalAlign=top;align=center;html=1;fontSize=12;fontStyle=0;aspect=fixed;shape=mxgraph.aws4.resourceIcon;resIcon=mxgraph.aws4.eks;" parent="1" vertex="1">
          <mxGeometry x="630" y="150" width="30" height="30" as="geometry" />
        </mxCell>
        <mxCell id="FPTnSwzppv17P6COB9SP-47" value="" style="outlineConnect=0;gradientColor=none;html=1;whiteSpace=wrap;fontSize=12;fontStyle=0;strokeColor=#879196;fillColor=none;verticalAlign=top;align=center;fontColor=#879196;dashed=1;spacingTop=3;" parent="1" vertex="1">
          <mxGeometry x="645" y="480" width="220" height="70" as="geometry" />
        </mxCell>
        <mxCell id="FPTnSwzppv17P6COB9SP-48" value="" style="aspect=fixed;sketch=0;html=1;dashed=0;whitespace=wrap;fillColor=#2875E2;strokeColor=#ffffff;points=[[0.005,0.63,0],[0.1,0.2,0],[0.9,0.2,0],[0.5,0,0],[0.995,0.63,0],[0.72,0.99,0],[0.5,1,0],[0.28,0.99,0]];shape=mxgraph.kubernetes.icon2;kubernetesLabel=1;prIcon=pod" parent="1" vertex="1">
          <mxGeometry x="655" y="491" width="50" height="48" as="geometry" />
        </mxCell>
        <mxCell id="FPTnSwzppv17P6COB9SP-49" value="" style="aspect=fixed;sketch=0;html=1;dashed=0;whitespace=wrap;fillColor=#2875E2;strokeColor=#ffffff;points=[[0.005,0.63,0],[0.1,0.2,0],[0.9,0.2,0],[0.5,0,0],[0.995,0.63,0],[0.72,0.99,0],[0.5,1,0],[0.28,0.99,0]];shape=mxgraph.kubernetes.icon2;kubernetesLabel=1;prIcon=pod" parent="1" vertex="1">
          <mxGeometry x="725" y="491" width="50" height="48" as="geometry" />
        </mxCell>
        <mxCell id="FPTnSwzppv17P6COB9SP-50" value="" style="aspect=fixed;sketch=0;html=1;dashed=0;whitespace=wrap;fillColor=#2875E2;strokeColor=#ffffff;points=[[0.005,0.63,0],[0.1,0.2,0],[0.9,0.2,0],[0.5,0,0],[0.995,0.63,0],[0.72,0.99,0],[0.5,1,0],[0.28,0.99,0]];shape=mxgraph.kubernetes.icon2;kubernetesLabel=1;prIcon=pod" parent="1" vertex="1">
          <mxGeometry x="795" y="491" width="50" height="48" as="geometry" />
        </mxCell>
        <mxCell id="FPTnSwzppv17P6COB9SP-51" value="Node Group" style="text;html=1;align=center;verticalAlign=middle;whiteSpace=wrap;rounded=0;" parent="1" vertex="1">
          <mxGeometry x="655" y="461" width="190" height="30" as="geometry" />
        </mxCell>
        <mxCell id="FPTnSwzppv17P6COB9SP-52" value="" style="outlineConnect=0;gradientColor=none;html=1;whiteSpace=wrap;fontSize=12;fontStyle=0;strokeColor=#879196;fillColor=none;verticalAlign=top;align=center;fontColor=#879196;dashed=1;spacingTop=3;" parent="1" vertex="1">
          <mxGeometry x="640" y="335" width="220" height="70" as="geometry" />
        </mxCell>
        <mxCell id="FPTnSwzppv17P6COB9SP-53" value="" style="aspect=fixed;sketch=0;html=1;dashed=0;whitespace=wrap;fillColor=#2875E2;strokeColor=#ffffff;points=[[0.005,0.63,0],[0.1,0.2,0],[0.9,0.2,0],[0.5,0,0],[0.995,0.63,0],[0.72,0.99,0],[0.5,1,0],[0.28,0.99,0]];shape=mxgraph.kubernetes.icon2;kubernetesLabel=1;prIcon=pod" parent="1" vertex="1">
          <mxGeometry x="650" y="346" width="50" height="48" as="geometry" />
        </mxCell>
        <mxCell id="FPTnSwzppv17P6COB9SP-54" value="" style="aspect=fixed;sketch=0;html=1;dashed=0;whitespace=wrap;fillColor=#2875E2;strokeColor=#ffffff;points=[[0.005,0.63,0],[0.1,0.2,0],[0.9,0.2,0],[0.5,0,0],[0.995,0.63,0],[0.72,0.99,0],[0.5,1,0],[0.28,0.99,0]];shape=mxgraph.kubernetes.icon2;kubernetesLabel=1;prIcon=pod" parent="1" vertex="1">
          <mxGeometry x="720" y="346" width="50" height="48" as="geometry" />
        </mxCell>
        <mxCell id="FPTnSwzppv17P6COB9SP-55" value="" style="aspect=fixed;sketch=0;html=1;dashed=0;whitespace=wrap;fillColor=#2875E2;strokeColor=#ffffff;points=[[0.005,0.63,0],[0.1,0.2,0],[0.9,0.2,0],[0.5,0,0],[0.995,0.63,0],[0.72,0.99,0],[0.5,1,0],[0.28,0.99,0]];shape=mxgraph.kubernetes.icon2;kubernetesLabel=1;prIcon=pod" parent="1" vertex="1">
          <mxGeometry x="790" y="346" width="50" height="48" as="geometry" />
        </mxCell>
        <mxCell id="FPTnSwzppv17P6COB9SP-56" value="Node Group" style="text;html=1;align=center;verticalAlign=middle;whiteSpace=wrap;rounded=0;" parent="1" vertex="1">
          <mxGeometry x="710" y="305" width="90" height="30" as="geometry" />
        </mxCell>
        <mxCell id="FPTnSwzppv17P6COB9SP-57" value="" style="outlineConnect=0;gradientColor=none;html=1;whiteSpace=wrap;fontSize=12;fontStyle=0;strokeColor=#879196;fillColor=none;verticalAlign=top;align=center;fontColor=#879196;dashed=1;spacingTop=3;" parent="1" vertex="1">
          <mxGeometry x="640" y="180" width="220" height="70" as="geometry" />
        </mxCell>
        <mxCell id="FPTnSwzppv17P6COB9SP-58" value="" style="aspect=fixed;sketch=0;html=1;dashed=0;whitespace=wrap;fillColor=#2875E2;strokeColor=#ffffff;points=[[0.005,0.63,0],[0.1,0.2,0],[0.9,0.2,0],[0.5,0,0],[0.995,0.63,0],[0.72,0.99,0],[0.5,1,0],[0.28,0.99,0]];shape=mxgraph.kubernetes.icon2;kubernetesLabel=1;prIcon=pod" parent="1" vertex="1">
          <mxGeometry x="650" y="191" width="50" height="48" as="geometry" />
        </mxCell>
        <mxCell id="FPTnSwzppv17P6COB9SP-59" value="" style="aspect=fixed;sketch=0;html=1;dashed=0;whitespace=wrap;fillColor=#2875E2;strokeColor=#ffffff;points=[[0.005,0.63,0],[0.1,0.2,0],[0.9,0.2,0],[0.5,0,0],[0.995,0.63,0],[0.72,0.99,0],[0.5,1,0],[0.28,0.99,0]];shape=mxgraph.kubernetes.icon2;kubernetesLabel=1;prIcon=pod" parent="1" vertex="1">
          <mxGeometry x="720" y="191" width="50" height="48" as="geometry" />
        </mxCell>
        <mxCell id="FPTnSwzppv17P6COB9SP-60" value="" style="aspect=fixed;sketch=0;html=1;dashed=0;whitespace=wrap;fillColor=#2875E2;strokeColor=#ffffff;points=[[0.005,0.63,0],[0.1,0.2,0],[0.9,0.2,0],[0.5,0,0],[0.995,0.63,0],[0.72,0.99,0],[0.5,1,0],[0.28,0.99,0]];shape=mxgraph.kubernetes.icon2;kubernetesLabel=1;prIcon=pod" parent="1" vertex="1">
          <mxGeometry x="790" y="191" width="50" height="48" as="geometry" />
        </mxCell>
        <mxCell id="FPTnSwzppv17P6COB9SP-61" value="Node Group" style="text;html=1;align=center;verticalAlign=middle;whiteSpace=wrap;rounded=0;" parent="1" vertex="1">
          <mxGeometry x="705" y="150" width="90" height="30" as="geometry" />
        </mxCell>
        <mxCell id="FPTnSwzppv17P6COB9SP-62" style="edgeStyle=orthogonalEdgeStyle;rounded=0;orthogonalLoop=1;jettySize=auto;html=1;entryX=0.011;entryY=0.353;entryDx=0;entryDy=0;entryPerimeter=0;" parent="1" source="FPTnSwzppv17P6COB9SP-11" target="FPTnSwzppv17P6COB9SP-52" edge="1">
          <mxGeometry relative="1" as="geometry" />
        </mxCell>
        <mxCell id="FPTnSwzppv17P6COB9SP-64" value="" style="sketch=0;points=[[0,0,0],[0.25,0,0],[0.5,0,0],[0.75,0,0],[1,0,0],[0,1,0],[0.25,1,0],[0.5,1,0],[0.75,1,0],[1,1,0],[0,0.25,0],[0,0.5,0],[0,0.75,0],[1,0.25,0],[1,0.5,0],[1,0.75,0]];points=[[0,0,0],[0.25,0,0],[0.5,0,0],[0.75,0,0],[1,0,0],[0,1,0],[0.25,1,0],[0.5,1,0],[0.75,1,0],[1,1,0],[0,0.25,0],[0,0.5,0],[0,0.75,0],[1,0.25,0],[1,0.5,0],[1,0.75,0]];outlineConnect=0;fontColor=#232F3E;fillColor=#E7157B;strokeColor=#ffffff;dashed=0;verticalLabelPosition=bottom;verticalAlign=top;align=center;html=1;fontSize=12;fontStyle=0;aspect=fixed;shape=mxgraph.aws4.resourceIcon;resIcon=mxgraph.aws4.cloudwatch_2;" parent="1" vertex="1">
          <mxGeometry x="1295" y="170" width="55" height="55" as="geometry" />
        </mxCell>
        <mxCell id="FPTnSwzppv17P6COB9SP-65" value="" style="sketch=0;points=[[0,0,0],[0.25,0,0],[0.5,0,0],[0.75,0,0],[1,0,0],[0,1,0],[0.25,1,0],[0.5,1,0],[0.75,1,0],[1,1,0],[0,0.25,0],[0,0.5,0],[0,0.75,0],[1,0.25,0],[1,0.5,0],[1,0.75,0]];outlineConnect=0;fontColor=#232F3E;fillColor=#E7157B;strokeColor=#ffffff;dashed=0;verticalLabelPosition=bottom;verticalAlign=top;align=center;html=1;fontSize=12;fontStyle=0;aspect=fixed;shape=mxgraph.aws4.resourceIcon;resIcon=mxgraph.aws4.sns;" parent="1" vertex="1">
          <mxGeometry x="1295" y="272" width="55" height="55" as="geometry" />
        </mxCell>
        <mxCell id="FPTnSwzppv17P6COB9SP-66" value="" style="sketch=0;outlineConnect=0;fontColor=#232F3E;gradientColor=none;fillColor=#7AA116;strokeColor=none;dashed=0;verticalLabelPosition=bottom;verticalAlign=top;align=center;html=1;fontSize=12;fontStyle=0;aspect=fixed;pointerEvents=1;shape=mxgraph.aws4.bucket_with_objects;" parent="1" vertex="1">
          <mxGeometry x="1298.75" y="472" width="55" height="57.2" as="geometry" />
        </mxCell>
        <mxCell id="FPTnSwzppv17P6COB9SP-67" value="" style="sketch=0;points=[[0,0,0],[0.25,0,0],[0.5,0,0],[0.75,0,0],[1,0,0],[0,1,0],[0.25,1,0],[0.5,1,0],[0.75,1,0],[1,1,0],[0,0.25,0],[0,0.5,0],[0,0.75,0],[1,0.25,0],[1,0.5,0],[1,0.75,0]];outlineConnect=0;fontColor=#232F3E;fillColor=#DD344C;strokeColor=#ffffff;dashed=0;verticalLabelPosition=bottom;verticalAlign=top;align=center;html=1;fontSize=12;fontStyle=0;aspect=fixed;shape=mxgraph.aws4.resourceIcon;resIcon=mxgraph.aws4.guardduty;" parent="1" vertex="1">
          <mxGeometry x="1295" y="370" width="55" height="55" as="geometry" />
        </mxCell>
        <mxCell id="FPTnSwzppv17P6COB9SP-68" value="" style="sketch=0;points=[[0,0,0],[0.25,0,0],[0.5,0,0],[0.75,0,0],[1,0,0],[0,1,0],[0.25,1,0],[0.5,1,0],[0.75,1,0],[1,1,0],[0,0.25,0],[0,0.5,0],[0,0.75,0],[1,0.25,0],[1,0.5,0],[1,0.75,0]];points=[[0,0,0],[0.25,0,0],[0.5,0,0],[0.75,0,0],[1,0,0],[0,1,0],[0.25,1,0],[0.5,1,0],[0.75,1,0],[1,1,0],[0,0.25,0],[0,0.5,0],[0,0.75,0],[1,0.25,0],[1,0.5,0],[1,0.75,0]];outlineConnect=0;fontColor=#232F3E;fillColor=#E7157B;strokeColor=#ffffff;dashed=0;verticalLabelPosition=bottom;verticalAlign=top;align=center;html=1;fontSize=12;fontStyle=0;aspect=fixed;shape=mxgraph.aws4.resourceIcon;resIcon=mxgraph.aws4.cloudtrail;" parent="1" vertex="1">
          <mxGeometry x="1290" y="70" width="55" height="55" as="geometry" />
        </mxCell>
        <mxCell id="FPTnSwzppv17P6COB9SP-69" value="EKS" style="text;html=1;align=center;verticalAlign=middle;whiteSpace=wrap;rounded=0;" parent="1" vertex="1">
          <mxGeometry x="645" y="150" width="60" height="30" as="geometry" />
        </mxCell>
        <mxCell id="FPTnSwzppv17P6COB9SP-70" value="CloudTrail" style="text;html=1;align=center;verticalAlign=middle;whiteSpace=wrap;rounded=0;" parent="1" vertex="1">
          <mxGeometry x="1285" y="120" width="60" height="30" as="geometry" />
        </mxCell>
        <mxCell id="FPTnSwzppv17P6COB9SP-71" value="&lt;div&gt;Cloudwatch&lt;/div&gt;&lt;div&gt;&lt;br&gt;&lt;/div&gt;" style="text;html=1;align=center;verticalAlign=middle;whiteSpace=wrap;rounded=0;" parent="1" vertex="1">
          <mxGeometry x="1290" y="230" width="60" height="30" as="geometry" />
        </mxCell>
        <mxCell id="FPTnSwzppv17P6COB9SP-72" value="&lt;div align=&quot;left&quot;&gt;SNS&lt;br&gt;&lt;/div&gt;" style="text;html=1;align=center;verticalAlign=middle;whiteSpace=wrap;rounded=0;" parent="1" vertex="1">
          <mxGeometry x="1290" y="322" width="60" height="30" as="geometry" />
        </mxCell>
        <mxCell id="FPTnSwzppv17P6COB9SP-73" value="&lt;div&gt;GuardDuty&lt;/div&gt;&lt;div&gt;&lt;br&gt;&lt;/div&gt;" style="text;html=1;align=center;verticalAlign=middle;whiteSpace=wrap;rounded=0;" parent="1" vertex="1">
          <mxGeometry x="1292.5" y="430" width="60" height="30" as="geometry" />
        </mxCell>
        <mxCell id="FPTnSwzppv17P6COB9SP-74" value="S3 for Logs" style="text;html=1;align=center;verticalAlign=middle;whiteSpace=wrap;rounded=0;" parent="1" vertex="1">
          <mxGeometry x="1291.25" y="530" width="60" height="30" as="geometry" />
        </mxCell>
        <mxCell id="FPTnSwzppv17P6COB9SP-76" value="Secrets Manager" style="text;html=1;align=center;verticalAlign=middle;whiteSpace=wrap;rounded=0;" parent="1" vertex="1">
          <mxGeometry x="1270" y="625" width="110" height="30" as="geometry" />
        </mxCell>
        <mxCell id="FPTnSwzppv17P6COB9SP-77" value="" style="rounded=0;whiteSpace=wrap;html=1;" parent="1" vertex="1">
          <mxGeometry x="-250" y="260" width="210" height="200" as="geometry" />
        </mxCell>
        <mxCell id="FPTnSwzppv17P6COB9SP-78" value="&lt;b&gt;&lt;font style=&quot;font-size: 18px;&quot;&gt;Actors&lt;/font&gt;&lt;/b&gt;" style="rounded=0;whiteSpace=wrap;html=1;" parent="1" vertex="1">
          <mxGeometry x="-250" y="460" width="210" height="50" as="geometry" />
        </mxCell>
        <mxCell id="FPTnSwzppv17P6COB9SP-79" value="" style="sketch=0;outlineConnect=0;fontColor=#232F3E;gradientColor=none;fillColor=#232F3D;strokeColor=none;dashed=0;verticalLabelPosition=bottom;verticalAlign=top;align=center;html=1;fontSize=12;fontStyle=0;aspect=fixed;pointerEvents=1;shape=mxgraph.aws4.users;" parent="1" vertex="1">
          <mxGeometry x="-240" y="340" width="60" height="60" as="geometry" />
        </mxCell>
        <mxCell id="FPTnSwzppv17P6COB9SP-80" value="" style="sketch=0;aspect=fixed;pointerEvents=1;shadow=0;dashed=0;html=1;strokeColor=none;labelPosition=center;verticalLabelPosition=bottom;verticalAlign=top;align=center;fillColor=#00188D;shape=mxgraph.azure.mobile" parent="1" vertex="1">
          <mxGeometry x="-117.5" y="380" width="35" height="50" as="geometry" />
        </mxCell>
        <mxCell id="FPTnSwzppv17P6COB9SP-81" value="" style="shape=image;html=1;verticalAlign=top;verticalLabelPosition=bottom;labelBackgroundColor=#ffffff;imageAspect=0;aspect=fixed;image=https://cdn2.iconfinder.com/data/icons/whcompare-isometric-web-hosting-servers/50/root-access-128.png" parent="1" vertex="1">
          <mxGeometry x="-130" y="300" width="60" height="60" as="geometry" />
        </mxCell>
        <mxCell id="FPTnSwzppv17P6COB9SP-82" value="User" style="text;html=1;align=center;verticalAlign=middle;whiteSpace=wrap;rounded=0;" parent="1" vertex="1">
          <mxGeometry x="-240" y="395.5" width="60" height="30" as="geometry" />
        </mxCell>
        <mxCell id="FPTnSwzppv17P6COB9SP-83" style="edgeStyle=orthogonalEdgeStyle;rounded=0;orthogonalLoop=1;jettySize=auto;html=1;entryX=0.182;entryY=0.345;entryDx=0;entryDy=0;entryPerimeter=0;" parent="1" source="FPTnSwzppv17P6COB9SP-81" target="FPTnSwzppv17P6COB9SP-29" edge="1">
          <mxGeometry relative="1" as="geometry" />
        </mxCell>
        <mxCell id="FPTnSwzppv17P6COB9SP-84" style="edgeStyle=orthogonalEdgeStyle;rounded=0;orthogonalLoop=1;jettySize=auto;html=1;entryX=0.133;entryY=0.067;entryDx=0;entryDy=0;entryPerimeter=0;" parent="1" source="FPTnSwzppv17P6COB9SP-80" target="FPTnSwzppv17P6COB9SP-31" edge="1">
          <mxGeometry relative="1" as="geometry">
            <Array as="points">
              <mxPoint x="24" y="405" />
              <mxPoint x="24" y="380" />
              <mxPoint x="138" y="380" />
            </Array>
          </mxGeometry>
        </mxCell>
        <mxCell id="FPTnSwzppv17P6COB9SP-86" value="KMS" style="text;html=1;align=center;verticalAlign=middle;whiteSpace=wrap;rounded=0;" parent="1" vertex="1">
          <mxGeometry x="1292.5" y="710" width="60" height="30" as="geometry" />
        </mxCell>
        <mxCell id="FPTnSwzppv17P6COB9SP-89" value="" style="sketch=0;points=[[0,0,0],[0.25,0,0],[0.5,0,0],[0.75,0,0],[1,0,0],[0,1,0],[0.25,1,0],[0.5,1,0],[0.75,1,0],[1,1,0],[0,0.25,0],[0,0.5,0],[0,0.75,0],[1,0.25,0],[1,0.5,0],[1,0.75,0]];outlineConnect=0;fontColor=#232F3E;fillColor=#DD344C;strokeColor=#ffffff;dashed=0;verticalLabelPosition=bottom;verticalAlign=top;align=center;html=1;fontSize=12;fontStyle=0;aspect=fixed;shape=mxgraph.aws4.resourceIcon;resIcon=mxgraph.aws4.secrets_manager;" parent="1" vertex="1">
          <mxGeometry x="1295" y="570" width="55" height="55" as="geometry" />
        </mxCell>
        <mxCell id="FPTnSwzppv17P6COB9SP-90" value="" style="sketch=0;points=[[0,0,0],[0.25,0,0],[0.5,0,0],[0.75,0,0],[1,0,0],[0,1,0],[0.25,1,0],[0.5,1,0],[0.75,1,0],[1,1,0],[0,0.25,0],[0,0.5,0],[0,0.75,0],[1,0.25,0],[1,0.5,0],[1,0.75,0]];outlineConnect=0;fontColor=#232F3E;fillColor=#DD344C;strokeColor=#ffffff;dashed=0;verticalLabelPosition=bottom;verticalAlign=top;align=center;html=1;fontSize=12;fontStyle=0;aspect=fixed;shape=mxgraph.aws4.resourceIcon;resIcon=mxgraph.aws4.key_management_service;" parent="1" vertex="1">
          <mxGeometry x="1295" y="655" width="55" height="55" as="geometry" />
        </mxCell>
        <mxCell id="SL1x87lAMIjE-oNFavEV-1" value="" style="rounded=0;whiteSpace=wrap;html=1;" parent="1" vertex="1">
          <mxGeometry x="10" y="20" width="1230" height="780" as="geometry" />
        </mxCell>
        <mxCell id="SL1x87lAMIjE-oNFavEV-2" value="AWS Cloud" style="points=[[0,0],[0.25,0],[0.5,0],[0.75,0],[1,0],[1,0.25],[1,0.5],[1,0.75],[1,1],[0.75,1],[0.5,1],[0.25,1],[0,1],[0,0.75],[0,0.5],[0,0.25]];outlineConnect=0;gradientColor=none;html=1;whiteSpace=wrap;fontSize=12;fontStyle=0;container=1;pointerEvents=0;collapsible=0;recursiveResize=0;shape=mxgraph.aws4.group;grIcon=mxgraph.aws4.group_aws_cloud_alt;strokeColor=#232F3E;fillColor=none;verticalAlign=top;align=left;spacingLeft=30;fontColor=#232F3E;dashed=0;" parent="1" vertex="1">
          <mxGeometry x="40" y="50" width="1160" height="710" as="geometry" />
        </mxCell>
        <mxCell id="SL1x87lAMIjE-oNFavEV-3" value="Region" style="points=[[0,0],[0.25,0],[0.5,0],[0.75,0],[1,0],[1,0.25],[1,0.5],[1,0.75],[1,1],[0.75,1],[0.5,1],[0.25,1],[0,1],[0,0.75],[0,0.5],[0,0.25]];outlineConnect=0;gradientColor=none;html=1;whiteSpace=wrap;fontSize=12;fontStyle=0;container=1;pointerEvents=0;collapsible=0;recursiveResize=0;shape=mxgraph.aws4.group;grIcon=mxgraph.aws4.group_region;strokeColor=#00A4A6;fillColor=none;verticalAlign=top;align=left;spacingLeft=30;fontColor=#147EBA;dashed=1;" parent="SL1x87lAMIjE-oNFavEV-2" vertex="1">
          <mxGeometry x="30" y="30" width="1090" height="640" as="geometry" />
        </mxCell>
        <mxCell id="SL1x87lAMIjE-oNFavEV-4" value="VPC" style="points=[[0,0],[0.25,0],[0.5,0],[0.75,0],[1,0],[1,0.25],[1,0.5],[1,0.75],[1,1],[0.75,1],[0.5,1],[0.25,1],[0,1],[0,0.75],[0,0.5],[0,0.25]];outlineConnect=0;gradientColor=none;html=1;whiteSpace=wrap;fontSize=12;fontStyle=0;container=1;pointerEvents=0;collapsible=0;recursiveResize=0;shape=mxgraph.aws4.group;grIcon=mxgraph.aws4.group_vpc2;strokeColor=#8C4FFF;fillColor=none;verticalAlign=top;align=left;spacingLeft=30;fontColor=#AAB7B8;dashed=0;" parent="SL1x87lAMIjE-oNFavEV-3" vertex="1">
          <mxGeometry x="320" y="20" width="720" height="500" as="geometry" />
        </mxCell>
        <mxCell id="SL1x87lAMIjE-oNFavEV-5" value="Availability Zone" style="fillColor=none;strokeColor=#147EBA;dashed=1;verticalAlign=top;fontStyle=0;fontColor=#147EBA;whiteSpace=wrap;html=1;direction=east;" parent="SL1x87lAMIjE-oNFavEV-4" vertex="1">
          <mxGeometry x="50" y="20" width="620" height="140" as="geometry" />
        </mxCell>
        <mxCell id="SL1x87lAMIjE-oNFavEV-6" value="Private subnet" style="points=[[0,0],[0.25,0],[0.5,0],[0.75,0],[1,0],[1,0.25],[1,0.5],[1,0.75],[1,1],[0.75,1],[0.5,1],[0.25,1],[0,1],[0,0.75],[0,0.5],[0,0.25]];outlineConnect=0;gradientColor=none;html=1;whiteSpace=wrap;fontSize=12;fontStyle=0;container=1;pointerEvents=0;collapsible=0;recursiveResize=0;shape=mxgraph.aws4.group;grIcon=mxgraph.aws4.group_security_group;grStroke=0;strokeColor=#00A4A6;fillColor=#E6F6F7;verticalAlign=top;align=left;spacingLeft=30;fontColor=#147EBA;dashed=0;" parent="SL1x87lAMIjE-oNFavEV-4" vertex="1">
          <mxGeometry x="220" y="30" width="280" height="120" as="geometry" />
        </mxCell>
        <mxCell id="SL1x87lAMIjE-oNFavEV-7" value="Public subnet" style="points=[[0,0],[0.25,0],[0.5,0],[0.75,0],[1,0],[1,0.25],[1,0.5],[1,0.75],[1,1],[0.75,1],[0.5,1],[0.25,1],[0,1],[0,0.75],[0,0.5],[0,0.25]];outlineConnect=0;gradientColor=none;html=1;whiteSpace=wrap;fontSize=12;fontStyle=0;container=1;pointerEvents=0;collapsible=0;recursiveResize=0;shape=mxgraph.aws4.group;grIcon=mxgraph.aws4.group_security_group;grStroke=0;strokeColor=#7AA116;fillColor=#F2F6E8;verticalAlign=top;align=left;spacingLeft=30;fontColor=#248814;dashed=0;" parent="SL1x87lAMIjE-oNFavEV-4" vertex="1">
          <mxGeometry x="70" y="30" width="130" height="120" as="geometry" />
        </mxCell>
        <mxCell id="SL1x87lAMIjE-oNFavEV-8" value="Private subnet" style="points=[[0,0],[0.25,0],[0.5,0],[0.75,0],[1,0],[1,0.25],[1,0.5],[1,0.75],[1,1],[0.75,1],[0.5,1],[0.25,1],[0,1],[0,0.75],[0,0.5],[0,0.25]];outlineConnect=0;gradientColor=none;html=1;whiteSpace=wrap;fontSize=12;fontStyle=0;container=1;pointerEvents=0;collapsible=0;recursiveResize=0;shape=mxgraph.aws4.group;grIcon=mxgraph.aws4.group_security_group;grStroke=0;strokeColor=#00A4A6;fillColor=#E6F6F7;verticalAlign=top;align=left;spacingLeft=30;fontColor=#147EBA;dashed=0;" parent="SL1x87lAMIjE-oNFavEV-4" vertex="1">
          <mxGeometry x="520" y="30" width="130" height="120" as="geometry" />
        </mxCell>
        <mxCell id="SL1x87lAMIjE-oNFavEV-9" value="" style="sketch=0;points=[[0,0,0],[0.25,0,0],[0.5,0,0],[0.75,0,0],[1,0,0],[0,1,0],[0.25,1,0],[0.5,1,0],[0.75,1,0],[1,1,0],[0,0.25,0],[0,0.5,0],[0,0.75,0],[1,0.25,0],[1,0.5,0],[1,0.75,0]];outlineConnect=0;fontColor=#232F3E;fillColor=#C925D1;strokeColor=#ffffff;dashed=0;verticalLabelPosition=bottom;verticalAlign=top;align=center;html=1;fontSize=12;fontStyle=0;aspect=fixed;shape=mxgraph.aws4.resourceIcon;resIcon=mxgraph.aws4.rds;" parent="SL1x87lAMIjE-oNFavEV-8" vertex="1">
          <mxGeometry x="40" y="50" width="50" height="50" as="geometry" />
        </mxCell>
        <mxCell id="SL1x87lAMIjE-oNFavEV-10" value="Availability Zone" style="fillColor=none;strokeColor=#147EBA;dashed=1;verticalAlign=top;fontStyle=0;fontColor=#147EBA;whiteSpace=wrap;html=1;direction=east;" parent="SL1x87lAMIjE-oNFavEV-4" vertex="1">
          <mxGeometry x="50" y="180" width="620" height="140" as="geometry" />
        </mxCell>
        <mxCell id="SL1x87lAMIjE-oNFavEV-11" value="Availability Zone" style="fillColor=none;strokeColor=#147EBA;dashed=1;verticalAlign=top;fontStyle=0;fontColor=#147EBA;whiteSpace=wrap;html=1;direction=east;" parent="SL1x87lAMIjE-oNFavEV-4" vertex="1">
          <mxGeometry x="50" y="340" width="620" height="140" as="geometry" />
        </mxCell>
        <mxCell id="SL1x87lAMIjE-oNFavEV-12" value="Public subnet" style="points=[[0,0],[0.25,0],[0.5,0],[0.75,0],[1,0],[1,0.25],[1,0.5],[1,0.75],[1,1],[0.75,1],[0.5,1],[0.25,1],[0,1],[0,0.75],[0,0.5],[0,0.25]];outlineConnect=0;gradientColor=none;html=1;whiteSpace=wrap;fontSize=12;fontStyle=0;container=1;pointerEvents=0;collapsible=0;recursiveResize=0;shape=mxgraph.aws4.group;grIcon=mxgraph.aws4.group_security_group;grStroke=0;strokeColor=#7AA116;fillColor=#F2F6E8;verticalAlign=top;align=left;spacingLeft=30;fontColor=#248814;dashed=0;" parent="SL1x87lAMIjE-oNFavEV-4" vertex="1">
          <mxGeometry x="70" y="190" width="130" height="120" as="geometry" />
        </mxCell>
        <mxCell id="SL1x87lAMIjE-oNFavEV-13" value="" style="sketch=0;outlineConnect=0;fontColor=#232F3E;gradientColor=none;fillColor=#8C4FFF;strokeColor=none;dashed=0;verticalLabelPosition=bottom;verticalAlign=top;align=center;html=1;fontSize=12;fontStyle=0;aspect=fixed;pointerEvents=1;shape=mxgraph.aws4.application_load_balancer;" parent="SL1x87lAMIjE-oNFavEV-12" vertex="1">
          <mxGeometry x="40" y="45" width="50" height="50" as="geometry" />
        </mxCell>
        <mxCell id="SL1x87lAMIjE-oNFavEV-14" value="ALB" style="text;html=1;align=center;verticalAlign=middle;whiteSpace=wrap;rounded=0;" parent="SL1x87lAMIjE-oNFavEV-12" vertex="1">
          <mxGeometry x="35" y="90" width="60" height="30" as="geometry" />
        </mxCell>
        <mxCell id="SL1x87lAMIjE-oNFavEV-15" value="Public subnet" style="points=[[0,0],[0.25,0],[0.5,0],[0.75,0],[1,0],[1,0.25],[1,0.5],[1,0.75],[1,1],[0.75,1],[0.5,1],[0.25,1],[0,1],[0,0.75],[0,0.5],[0,0.25]];outlineConnect=0;gradientColor=none;html=1;whiteSpace=wrap;fontSize=12;fontStyle=0;container=1;pointerEvents=0;collapsible=0;recursiveResize=0;shape=mxgraph.aws4.group;grIcon=mxgraph.aws4.group_security_group;grStroke=0;strokeColor=#7AA116;fillColor=#F2F6E8;verticalAlign=top;align=left;spacingLeft=30;fontColor=#248814;dashed=0;" parent="SL1x87lAMIjE-oNFavEV-4" vertex="1">
          <mxGeometry x="70" y="350" width="130" height="120" as="geometry" />
        </mxCell>
        <mxCell id="SL1x87lAMIjE-oNFavEV-16" value="Private subnet" style="points=[[0,0],[0.25,0],[0.5,0],[0.75,0],[1,0],[1,0.25],[1,0.5],[1,0.75],[1,1],[0.75,1],[0.5,1],[0.25,1],[0,1],[0,0.75],[0,0.5],[0,0.25]];outlineConnect=0;gradientColor=none;html=1;whiteSpace=wrap;fontSize=12;fontStyle=0;container=1;pointerEvents=0;collapsible=0;recursiveResize=0;shape=mxgraph.aws4.group;grIcon=mxgraph.aws4.group_security_group;grStroke=0;strokeColor=#00A4A6;fillColor=#E6F6F7;verticalAlign=top;align=left;spacingLeft=30;fontColor=#147EBA;dashed=0;" parent="SL1x87lAMIjE-oNFavEV-4" vertex="1">
          <mxGeometry x="220" y="190" width="280" height="120" as="geometry" />
        </mxCell>
        <mxCell id="SL1x87lAMIjE-oNFavEV-17" value="Private subnet" style="points=[[0,0],[0.25,0],[0.5,0],[0.75,0],[1,0],[1,0.25],[1,0.5],[1,0.75],[1,1],[0.75,1],[0.5,1],[0.25,1],[0,1],[0,0.75],[0,0.5],[0,0.25]];outlineConnect=0;gradientColor=none;html=1;whiteSpace=wrap;fontSize=12;fontStyle=0;container=1;pointerEvents=0;collapsible=0;recursiveResize=0;shape=mxgraph.aws4.group;grIcon=mxgraph.aws4.group_security_group;grStroke=0;strokeColor=#00A4A6;fillColor=#E6F6F7;verticalAlign=top;align=left;spacingLeft=30;fontColor=#147EBA;dashed=0;" parent="SL1x87lAMIjE-oNFavEV-4" vertex="1">
          <mxGeometry x="220" y="350" width="280" height="120" as="geometry" />
        </mxCell>
        <mxCell id="SL1x87lAMIjE-oNFavEV-18" value="Private subnet" style="points=[[0,0],[0.25,0],[0.5,0],[0.75,0],[1,0],[1,0.25],[1,0.5],[1,0.75],[1,1],[0.75,1],[0.5,1],[0.25,1],[0,1],[0,0.75],[0,0.5],[0,0.25]];outlineConnect=0;gradientColor=none;html=1;whiteSpace=wrap;fontSize=12;fontStyle=0;container=1;pointerEvents=0;collapsible=0;recursiveResize=0;shape=mxgraph.aws4.group;grIcon=mxgraph.aws4.group_security_group;grStroke=0;strokeColor=#00A4A6;fillColor=#E6F6F7;verticalAlign=top;align=left;spacingLeft=30;fontColor=#147EBA;dashed=0;" parent="SL1x87lAMIjE-oNFavEV-4" vertex="1">
          <mxGeometry x="520" y="190" width="130" height="120" as="geometry" />
        </mxCell>
        <mxCell id="SL1x87lAMIjE-oNFavEV-19" value="Private subnet" style="points=[[0,0],[0.25,0],[0.5,0],[0.75,0],[1,0],[1,0.25],[1,0.5],[1,0.75],[1,1],[0.75,1],[0.5,1],[0.25,1],[0,1],[0,0.75],[0,0.5],[0,0.25]];outlineConnect=0;gradientColor=none;html=1;whiteSpace=wrap;fontSize=12;fontStyle=0;container=1;pointerEvents=0;collapsible=0;recursiveResize=0;shape=mxgraph.aws4.group;grIcon=mxgraph.aws4.group_security_group;grStroke=0;strokeColor=#00A4A6;fillColor=#E6F6F7;verticalAlign=top;align=left;spacingLeft=30;fontColor=#147EBA;dashed=0;" parent="SL1x87lAMIjE-oNFavEV-4" vertex="1">
          <mxGeometry x="520" y="350" width="130" height="120" as="geometry" />
        </mxCell>
        <mxCell id="SL1x87lAMIjE-oNFavEV-20" value="" style="sketch=0;outlineConnect=0;fontColor=#232F3E;gradientColor=none;fillColor=#8C4FFF;strokeColor=none;dashed=0;verticalLabelPosition=bottom;verticalAlign=top;align=center;html=1;fontSize=12;fontStyle=0;aspect=fixed;pointerEvents=1;shape=mxgraph.aws4.nat_gateway;" parent="SL1x87lAMIjE-oNFavEV-4" vertex="1">
          <mxGeometry x="110" y="65" width="50" height="50" as="geometry" />
        </mxCell>
        <mxCell id="SL1x87lAMIjE-oNFavEV-21" value="" style="sketch=0;outlineConnect=0;fontColor=#232F3E;gradientColor=none;fillColor=#8C4FFF;strokeColor=none;dashed=0;verticalLabelPosition=bottom;verticalAlign=top;align=center;html=1;fontSize=12;fontStyle=0;aspect=fixed;pointerEvents=1;shape=mxgraph.aws4.nat_gateway;" parent="SL1x87lAMIjE-oNFavEV-4" vertex="1">
          <mxGeometry x="110" y="385" width="50" height="50" as="geometry" />
        </mxCell>
        <mxCell id="SL1x87lAMIjE-oNFavEV-22" value="NAT Gateway" style="text;html=1;align=center;verticalAlign=middle;whiteSpace=wrap;rounded=0;" parent="SL1x87lAMIjE-oNFavEV-4" vertex="1">
          <mxGeometry x="85" y="435" width="105" height="30" as="geometry" />
        </mxCell>
        <mxCell id="SL1x87lAMIjE-oNFavEV-23" value="NAT Gateway" style="text;html=1;align=center;verticalAlign=middle;whiteSpace=wrap;rounded=0;" parent="SL1x87lAMIjE-oNFavEV-4" vertex="1">
          <mxGeometry x="85" y="115" width="105" height="30" as="geometry" />
        </mxCell>
        <mxCell id="SL1x87lAMIjE-oNFavEV-24" value="" style="sketch=0;points=[[0,0,0],[0.25,0,0],[0.5,0,0],[0.75,0,0],[1,0,0],[0,1,0],[0.25,1,0],[0.5,1,0],[0.75,1,0],[1,1,0],[0,0.25,0],[0,0.5,0],[0,0.75,0],[1,0.25,0],[1,0.5,0],[1,0.75,0]];outlineConnect=0;fontColor=#232F3E;fillColor=#C925D1;strokeColor=#ffffff;dashed=0;verticalLabelPosition=bottom;verticalAlign=top;align=center;html=1;fontSize=12;fontStyle=0;aspect=fixed;shape=mxgraph.aws4.resourceIcon;resIcon=mxgraph.aws4.documentdb_with_mongodb_compatibility;" parent="SL1x87lAMIjE-oNFavEV-4" vertex="1">
          <mxGeometry x="560" y="225" width="50" height="50" as="geometry" />
        </mxCell>
        <mxCell id="SL1x87lAMIjE-oNFavEV-25" value="VPC Endpoint" style="text;html=1;align=center;verticalAlign=middle;whiteSpace=wrap;rounded=0;" parent="SL1x87lAMIjE-oNFavEV-4" vertex="1">
          <mxGeometry x="-30" y="290" width="60" height="30" as="geometry" />
        </mxCell>
        <mxCell id="SL1x87lAMIjE-oNFavEV-26" value="DocumentDB" style="text;html=1;align=center;verticalAlign=middle;whiteSpace=wrap;rounded=0;" parent="SL1x87lAMIjE-oNFavEV-4" vertex="1">
          <mxGeometry x="555" y="275" width="60" height="30" as="geometry" />
        </mxCell>
        <mxCell id="SL1x87lAMIjE-oNFavEV-27" value="RDS" style="text;html=1;align=center;verticalAlign=middle;whiteSpace=wrap;rounded=0;" parent="SL1x87lAMIjE-oNFavEV-4" vertex="1">
          <mxGeometry x="555" y="130" width="60" height="30" as="geometry" />
        </mxCell>
        <mxCell id="SL1x87lAMIjE-oNFavEV-28" style="edgeStyle=orthogonalEdgeStyle;rounded=0;orthogonalLoop=1;jettySize=auto;html=1;" parent="SL1x87lAMIjE-oNFavEV-3" source="SL1x87lAMIjE-oNFavEV-29" target="SL1x87lAMIjE-oNFavEV-34" edge="1">
          <mxGeometry relative="1" as="geometry" />
        </mxCell>
        <mxCell id="SL1x87lAMIjE-oNFavEV-29" value="" style="sketch=0;points=[[0,0,0],[0.25,0,0],[0.5,0,0],[0.75,0,0],[1,0,0],[0,1,0],[0.25,1,0],[0.5,1,0],[0.75,1,0],[1,1,0],[0,0.25,0],[0,0.5,0],[0,0.75,0],[1,0.25,0],[1,0.5,0],[1,0.75,0]];outlineConnect=0;fontColor=#232F3E;fillColor=#8C4FFF;strokeColor=#ffffff;dashed=0;verticalLabelPosition=bottom;verticalAlign=top;align=center;html=1;fontSize=12;fontStyle=0;aspect=fixed;shape=mxgraph.aws4.resourceIcon;resIcon=mxgraph.aws4.cloudfront;" parent="SL1x87lAMIjE-oNFavEV-3" vertex="1">
          <mxGeometry x="110" y="255" width="50" height="50" as="geometry" />
        </mxCell>
        <mxCell id="SL1x87lAMIjE-oNFavEV-30" value="" style="sketch=0;points=[[0,0,0],[0.25,0,0],[0.5,0,0],[0.75,0,0],[1,0,0],[0,1,0],[0.25,1,0],[0.5,1,0],[0.75,1,0],[1,1,0],[0,0.25,0],[0,0.5,0],[0,0.75,0],[1,0.25,0],[1,0.5,0],[1,0.75,0]];outlineConnect=0;fontColor=#232F3E;fillColor=#DD344C;strokeColor=#ffffff;dashed=0;verticalLabelPosition=bottom;verticalAlign=top;align=center;html=1;fontSize=12;fontStyle=0;aspect=fixed;shape=mxgraph.aws4.resourceIcon;resIcon=mxgraph.aws4.certificate_manager_3;" parent="SL1x87lAMIjE-oNFavEV-3" vertex="1">
          <mxGeometry x="115" y="370" width="50" height="50" as="geometry" />
        </mxCell>
        <mxCell id="SL1x87lAMIjE-oNFavEV-31" value="Cloudfront" style="text;html=1;align=center;verticalAlign=middle;whiteSpace=wrap;rounded=0;" parent="SL1x87lAMIjE-oNFavEV-3" vertex="1">
          <mxGeometry x="105" y="305" width="60" height="30" as="geometry" />
        </mxCell>
        <mxCell id="SL1x87lAMIjE-oNFavEV-32" value="" style="sketch=0;outlineConnect=0;fontColor=#232F3E;gradientColor=none;fillColor=#8C4FFF;strokeColor=none;dashed=0;verticalLabelPosition=bottom;verticalAlign=top;align=center;html=1;fontSize=12;fontStyle=0;aspect=fixed;pointerEvents=1;shape=mxgraph.aws4.endpoints;" parent="SL1x87lAMIjE-oNFavEV-3" vertex="1">
          <mxGeometry x="290" y="255" width="50" height="50" as="geometry" />
        </mxCell>
        <mxCell id="SL1x87lAMIjE-oNFavEV-33" style="edgeStyle=orthogonalEdgeStyle;rounded=0;orthogonalLoop=1;jettySize=auto;html=1;" parent="SL1x87lAMIjE-oNFavEV-3" source="SL1x87lAMIjE-oNFavEV-32" target="SL1x87lAMIjE-oNFavEV-13" edge="1">
          <mxGeometry relative="1" as="geometry" />
        </mxCell>
        <mxCell id="SL1x87lAMIjE-oNFavEV-34" value="" style="sketch=0;points=[[0,0,0],[0.25,0,0],[0.5,0,0],[0.75,0,0],[1,0,0],[0,1,0],[0.25,1,0],[0.5,1,0],[0.75,1,0],[1,1,0],[0,0.25,0],[0,0.5,0],[0,0.75,0],[1,0.25,0],[1,0.5,0],[1,0.75,0]];outlineConnect=0;fontColor=#232F3E;fillColor=#E7157B;strokeColor=#ffffff;dashed=0;verticalLabelPosition=bottom;verticalAlign=top;align=center;html=1;fontSize=12;fontStyle=0;aspect=fixed;shape=mxgraph.aws4.resourceIcon;resIcon=mxgraph.aws4.api_gateway;" parent="SL1x87lAMIjE-oNFavEV-3" vertex="1">
          <mxGeometry x="200" y="255" width="50" height="50" as="geometry" />
        </mxCell>
        <mxCell id="SL1x87lAMIjE-oNFavEV-35" style="edgeStyle=orthogonalEdgeStyle;rounded=0;orthogonalLoop=1;jettySize=auto;html=1;" parent="SL1x87lAMIjE-oNFavEV-3" source="SL1x87lAMIjE-oNFavEV-34" target="SL1x87lAMIjE-oNFavEV-32" edge="1">
          <mxGeometry relative="1" as="geometry" />
        </mxCell>
        <mxCell id="SL1x87lAMIjE-oNFavEV-36" style="edgeStyle=orthogonalEdgeStyle;rounded=0;orthogonalLoop=1;jettySize=auto;html=1;" parent="SL1x87lAMIjE-oNFavEV-3" source="SL1x87lAMIjE-oNFavEV-37" target="SL1x87lAMIjE-oNFavEV-29" edge="1">
          <mxGeometry relative="1" as="geometry" />
        </mxCell>
        <mxCell id="SL1x87lAMIjE-oNFavEV-37" value="" style="sketch=0;points=[[0,0,0],[0.25,0,0],[0.5,0,0],[0.75,0,0],[1,0,0],[0,1,0],[0.25,1,0],[0.5,1,0],[0.75,1,0],[1,1,0],[0,0.25,0],[0,0.5,0],[0,0.75,0],[1,0.25,0],[1,0.5,0],[1,0.75,0]];outlineConnect=0;fontColor=#232F3E;fillColor=#8C4FFF;strokeColor=#ffffff;dashed=0;verticalLabelPosition=bottom;verticalAlign=top;align=center;html=1;fontSize=12;fontStyle=0;aspect=fixed;shape=mxgraph.aws4.resourceIcon;resIcon=mxgraph.aws4.route_53;" parent="SL1x87lAMIjE-oNFavEV-3" vertex="1">
          <mxGeometry x="20" y="255" width="50" height="50" as="geometry" />
        </mxCell>
        <mxCell id="SL1x87lAMIjE-oNFavEV-38" value="API Gateway" style="text;html=1;align=center;verticalAlign=middle;whiteSpace=wrap;rounded=0;" parent="SL1x87lAMIjE-oNFavEV-3" vertex="1">
          <mxGeometry x="195" y="305" width="60" height="30" as="geometry" />
        </mxCell>
        <mxCell id="SL1x87lAMIjE-oNFavEV-39" style="edgeStyle=orthogonalEdgeStyle;rounded=0;orthogonalLoop=1;jettySize=auto;html=1;entryX=0.583;entryY=0.5;entryDx=0;entryDy=0;entryPerimeter=0;" parent="SL1x87lAMIjE-oNFavEV-3" source="SL1x87lAMIjE-oNFavEV-30" target="SL1x87lAMIjE-oNFavEV-31" edge="1">
          <mxGeometry relative="1" as="geometry" />
        </mxCell>
        <mxCell id="SL1x87lAMIjE-oNFavEV-40" value="" style="sketch=0;points=[[0,0,0],[0.25,0,0],[0.5,0,0],[0.75,0,0],[1,0,0],[0,1,0],[0.25,1,0],[0.5,1,0],[0.75,1,0],[1,1,0],[0,0.25,0],[0,0.5,0],[0,0.75,0],[1,0.25,0],[1,0.5,0],[1,0.75,0]];outlineConnect=0;fontColor=#232F3E;fillColor=#ED7100;strokeColor=#ffffff;dashed=0;verticalLabelPosition=bottom;verticalAlign=top;align=center;html=1;fontSize=12;fontStyle=0;aspect=fixed;shape=mxgraph.aws4.resourceIcon;resIcon=mxgraph.aws4.ecr;" parent="SL1x87lAMIjE-oNFavEV-3" vertex="1">
          <mxGeometry x="655" y="540" width="50" height="50" as="geometry" />
        </mxCell>
        <mxCell id="SL1x87lAMIjE-oNFavEV-41" value="ECR" style="text;html=1;align=center;verticalAlign=middle;whiteSpace=wrap;rounded=0;" parent="SL1x87lAMIjE-oNFavEV-3" vertex="1">
          <mxGeometry x="650" y="590" width="60" height="30" as="geometry" />
        </mxCell>
        <mxCell id="SL1x87lAMIjE-oNFavEV-42" value="Route53&lt;div&gt;&lt;br&gt;&lt;/div&gt;" style="text;html=1;align=center;verticalAlign=middle;whiteSpace=wrap;rounded=0;" parent="1" vertex="1">
          <mxGeometry x="90" y="390" width="60" height="30" as="geometry" />
        </mxCell>
        <mxCell id="SL1x87lAMIjE-oNFavEV-43" value="SSL" style="text;html=1;align=center;verticalAlign=middle;whiteSpace=wrap;rounded=0;" parent="1" vertex="1">
          <mxGeometry x="180" y="500" width="60" height="30" as="geometry" />
        </mxCell>
        <mxCell id="SL1x87lAMIjE-oNFavEV-44" value="" style="outlineConnect=0;gradientColor=none;html=1;whiteSpace=wrap;fontSize=12;fontStyle=0;strokeColor=#FF9900;fillColor=none;verticalAlign=top;align=center;fontColor=#FF9900;dashed=0;spacingTop=3;" parent="1" vertex="1">
          <mxGeometry x="630" y="150" width="240" height="410" as="geometry" />
        </mxCell>
        <mxCell id="SL1x87lAMIjE-oNFavEV-45" value="" style="sketch=0;points=[[0,0,0],[0.25,0,0],[0.5,0,0],[0.75,0,0],[1,0,0],[0,1,0],[0.25,1,0],[0.5,1,0],[0.75,1,0],[1,1,0],[0,0.25,0],[0,0.5,0],[0,0.75,0],[1,0.25,0],[1,0.5,0],[1,0.75,0]];outlineConnect=0;fontColor=#232F3E;fillColor=#ED7100;strokeColor=#ffffff;dashed=0;verticalLabelPosition=bottom;verticalAlign=top;align=center;html=1;fontSize=12;fontStyle=0;aspect=fixed;shape=mxgraph.aws4.resourceIcon;resIcon=mxgraph.aws4.eks;" parent="1" vertex="1">
          <mxGeometry x="630" y="150" width="30" height="30" as="geometry" />
        </mxCell>
        <mxCell id="SL1x87lAMIjE-oNFavEV-46" value="" style="outlineConnect=0;gradientColor=none;html=1;whiteSpace=wrap;fontSize=12;fontStyle=0;strokeColor=#879196;fillColor=none;verticalAlign=top;align=center;fontColor=#879196;dashed=1;spacingTop=3;" parent="1" vertex="1">
          <mxGeometry x="645" y="480" width="220" height="70" as="geometry" />
        </mxCell>
        <mxCell id="SL1x87lAMIjE-oNFavEV-47" value="" style="aspect=fixed;sketch=0;html=1;dashed=0;whitespace=wrap;fillColor=#2875E2;strokeColor=#ffffff;points=[[0.005,0.63,0],[0.1,0.2,0],[0.9,0.2,0],[0.5,0,0],[0.995,0.63,0],[0.72,0.99,0],[0.5,1,0],[0.28,0.99,0]];shape=mxgraph.kubernetes.icon2;kubernetesLabel=1;prIcon=pod" parent="1" vertex="1">
          <mxGeometry x="655" y="491" width="50" height="48" as="geometry" />
        </mxCell>
        <mxCell id="SL1x87lAMIjE-oNFavEV-48" value="" style="aspect=fixed;sketch=0;html=1;dashed=0;whitespace=wrap;fillColor=#2875E2;strokeColor=#ffffff;points=[[0.005,0.63,0],[0.1,0.2,0],[0.9,0.2,0],[0.5,0,0],[0.995,0.63,0],[0.72,0.99,0],[0.5,1,0],[0.28,0.99,0]];shape=mxgraph.kubernetes.icon2;kubernetesLabel=1;prIcon=pod" parent="1" vertex="1">
          <mxGeometry x="725" y="491" width="50" height="48" as="geometry" />
        </mxCell>
        <mxCell id="SL1x87lAMIjE-oNFavEV-49" value="" style="aspect=fixed;sketch=0;html=1;dashed=0;whitespace=wrap;fillColor=#2875E2;strokeColor=#ffffff;points=[[0.005,0.63,0],[0.1,0.2,0],[0.9,0.2,0],[0.5,0,0],[0.995,0.63,0],[0.72,0.99,0],[0.5,1,0],[0.28,0.99,0]];shape=mxgraph.kubernetes.icon2;kubernetesLabel=1;prIcon=pod" parent="1" vertex="1">
          <mxGeometry x="795" y="491" width="50" height="48" as="geometry" />
        </mxCell>
        <mxCell id="SL1x87lAMIjE-oNFavEV-50" value="Node Group" style="text;html=1;align=center;verticalAlign=middle;whiteSpace=wrap;rounded=0;" parent="1" vertex="1">
          <mxGeometry x="655" y="461" width="190" height="30" as="geometry" />
        </mxCell>
        <mxCell id="SL1x87lAMIjE-oNFavEV-51" value="" style="outlineConnect=0;gradientColor=none;html=1;whiteSpace=wrap;fontSize=12;fontStyle=0;strokeColor=#879196;fillColor=none;verticalAlign=top;align=center;fontColor=#879196;dashed=1;spacingTop=3;" parent="1" vertex="1">
          <mxGeometry x="640" y="335" width="220" height="70" as="geometry" />
        </mxCell>
        <mxCell id="SL1x87lAMIjE-oNFavEV-52" value="" style="aspect=fixed;sketch=0;html=1;dashed=0;whitespace=wrap;fillColor=#2875E2;strokeColor=#ffffff;points=[[0.005,0.63,0],[0.1,0.2,0],[0.9,0.2,0],[0.5,0,0],[0.995,0.63,0],[0.72,0.99,0],[0.5,1,0],[0.28,0.99,0]];shape=mxgraph.kubernetes.icon2;kubernetesLabel=1;prIcon=pod" parent="1" vertex="1">
          <mxGeometry x="650" y="346" width="50" height="48" as="geometry" />
        </mxCell>
        <mxCell id="SL1x87lAMIjE-oNFavEV-53" value="" style="aspect=fixed;sketch=0;html=1;dashed=0;whitespace=wrap;fillColor=#2875E2;strokeColor=#ffffff;points=[[0.005,0.63,0],[0.1,0.2,0],[0.9,0.2,0],[0.5,0,0],[0.995,0.63,0],[0.72,0.99,0],[0.5,1,0],[0.28,0.99,0]];shape=mxgraph.kubernetes.icon2;kubernetesLabel=1;prIcon=pod" parent="1" vertex="1">
          <mxGeometry x="720" y="346" width="50" height="48" as="geometry" />
        </mxCell>
        <mxCell id="SL1x87lAMIjE-oNFavEV-54" value="" style="aspect=fixed;sketch=0;html=1;dashed=0;whitespace=wrap;fillColor=#2875E2;strokeColor=#ffffff;points=[[0.005,0.63,0],[0.1,0.2,0],[0.9,0.2,0],[0.5,0,0],[0.995,0.63,0],[0.72,0.99,0],[0.5,1,0],[0.28,0.99,0]];shape=mxgraph.kubernetes.icon2;kubernetesLabel=1;prIcon=pod" parent="1" vertex="1">
          <mxGeometry x="790" y="346" width="50" height="48" as="geometry" />
        </mxCell>
        <mxCell id="SL1x87lAMIjE-oNFavEV-55" value="Node Group" style="text;html=1;align=center;verticalAlign=middle;whiteSpace=wrap;rounded=0;" parent="1" vertex="1">
          <mxGeometry x="705" y="305" width="90" height="30" as="geometry" />
        </mxCell>
        <mxCell id="SL1x87lAMIjE-oNFavEV-56" value="" style="outlineConnect=0;gradientColor=none;html=1;whiteSpace=wrap;fontSize=12;fontStyle=0;strokeColor=#879196;fillColor=none;verticalAlign=top;align=center;fontColor=#879196;dashed=1;spacingTop=3;" parent="1" vertex="1">
          <mxGeometry x="640" y="180" width="220" height="70" as="geometry" />
        </mxCell>
        <mxCell id="SL1x87lAMIjE-oNFavEV-57" value="" style="aspect=fixed;sketch=0;html=1;dashed=0;whitespace=wrap;fillColor=#2875E2;strokeColor=#ffffff;points=[[0.005,0.63,0],[0.1,0.2,0],[0.9,0.2,0],[0.5,0,0],[0.995,0.63,0],[0.72,0.99,0],[0.5,1,0],[0.28,0.99,0]];shape=mxgraph.kubernetes.icon2;kubernetesLabel=1;prIcon=pod" parent="1" vertex="1">
          <mxGeometry x="650" y="191" width="50" height="48" as="geometry" />
        </mxCell>
        <mxCell id="SL1x87lAMIjE-oNFavEV-58" value="" style="aspect=fixed;sketch=0;html=1;dashed=0;whitespace=wrap;fillColor=#2875E2;strokeColor=#ffffff;points=[[0.005,0.63,0],[0.1,0.2,0],[0.9,0.2,0],[0.5,0,0],[0.995,0.63,0],[0.72,0.99,0],[0.5,1,0],[0.28,0.99,0]];shape=mxgraph.kubernetes.icon2;kubernetesLabel=1;prIcon=pod" parent="1" vertex="1">
          <mxGeometry x="720" y="191" width="50" height="48" as="geometry" />
        </mxCell>
        <mxCell id="SL1x87lAMIjE-oNFavEV-59" value="" style="aspect=fixed;sketch=0;html=1;dashed=0;whitespace=wrap;fillColor=#2875E2;strokeColor=#ffffff;points=[[0.005,0.63,0],[0.1,0.2,0],[0.9,0.2,0],[0.5,0,0],[0.995,0.63,0],[0.72,0.99,0],[0.5,1,0],[0.28,0.99,0]];shape=mxgraph.kubernetes.icon2;kubernetesLabel=1;prIcon=pod" parent="1" vertex="1">
          <mxGeometry x="790" y="191" width="50" height="48" as="geometry" />
        </mxCell>
        <mxCell id="SL1x87lAMIjE-oNFavEV-60" value="Node Group" style="text;html=1;align=center;verticalAlign=middle;whiteSpace=wrap;rounded=0;" parent="1" vertex="1">
          <mxGeometry x="686" y="150" width="90" height="30" as="geometry" />
        </mxCell>
        <mxCell id="SL1x87lAMIjE-oNFavEV-61" style="edgeStyle=orthogonalEdgeStyle;rounded=0;orthogonalLoop=1;jettySize=auto;html=1;entryX=0.011;entryY=0.353;entryDx=0;entryDy=0;entryPerimeter=0;" parent="1" source="SL1x87lAMIjE-oNFavEV-13" target="SL1x87lAMIjE-oNFavEV-51" edge="1">
          <mxGeometry relative="1" as="geometry" />
        </mxCell>
        <mxCell id="SL1x87lAMIjE-oNFavEV-62" style="edgeStyle=orthogonalEdgeStyle;rounded=0;orthogonalLoop=1;jettySize=auto;html=1;" parent="1" source="SL1x87lAMIjE-oNFavEV-40" target="SL1x87lAMIjE-oNFavEV-44" edge="1">
          <mxGeometry relative="1" as="geometry" />
        </mxCell>
        <mxCell id="SL1x87lAMIjE-oNFavEV-63" value="" style="rounded=0;whiteSpace=wrap;html=1;" parent="1" vertex="1">
          <mxGeometry x="1280" y="20" width="160" height="781" as="geometry" />
        </mxCell>
        <mxCell id="SL1x87lAMIjE-oNFavEV-64" value="" style="sketch=0;points=[[0,0,0],[0.25,0,0],[0.5,0,0],[0.75,0,0],[1,0,0],[0,1,0],[0.25,1,0],[0.5,1,0],[0.75,1,0],[1,1,0],[0,0.25,0],[0,0.5,0],[0,0.75,0],[1,0.25,0],[1,0.5,0],[1,0.75,0]];points=[[0,0,0],[0.25,0,0],[0.5,0,0],[0.75,0,0],[1,0,0],[0,1,0],[0.25,1,0],[0.5,1,0],[0.75,1,0],[1,1,0],[0,0.25,0],[0,0.5,0],[0,0.75,0],[1,0.25,0],[1,0.5,0],[1,0.75,0]];outlineConnect=0;fontColor=#232F3E;fillColor=#E7157B;strokeColor=#ffffff;dashed=0;verticalLabelPosition=bottom;verticalAlign=top;align=center;html=1;fontSize=12;fontStyle=0;aspect=fixed;shape=mxgraph.aws4.resourceIcon;resIcon=mxgraph.aws4.cloudwatch_2;" parent="1" vertex="1">
          <mxGeometry x="1320" y="60" width="50" height="50" as="geometry" />
        </mxCell>
        <mxCell id="SL1x87lAMIjE-oNFavEV-65" value="" style="sketch=0;points=[[0,0,0],[0.25,0,0],[0.5,0,0],[0.75,0,0],[1,0,0],[0,1,0],[0.25,1,0],[0.5,1,0],[0.75,1,0],[1,1,0],[0,0.25,0],[0,0.5,0],[0,0.75,0],[1,0.25,0],[1,0.5,0],[1,0.75,0]];outlineConnect=0;fontColor=#232F3E;fillColor=#E7157B;strokeColor=#ffffff;dashed=0;verticalLabelPosition=bottom;verticalAlign=top;align=center;html=1;fontSize=12;fontStyle=0;aspect=fixed;shape=mxgraph.aws4.resourceIcon;resIcon=mxgraph.aws4.sns;" parent="1" vertex="1">
          <mxGeometry x="1320" y="150" width="50" height="50" as="geometry" />
        </mxCell>
        <mxCell id="SL1x87lAMIjE-oNFavEV-66" value="" style="sketch=0;outlineConnect=0;fontColor=#232F3E;gradientColor=none;fillColor=#7AA116;strokeColor=none;dashed=0;verticalLabelPosition=bottom;verticalAlign=top;align=center;html=1;fontSize=12;fontStyle=0;aspect=fixed;pointerEvents=1;shape=mxgraph.aws4.bucket_with_objects;" parent="1" vertex="1">
          <mxGeometry x="1320" y="239" width="50" height="52" as="geometry" />
        </mxCell>
        <mxCell id="SL1x87lAMIjE-oNFavEV-67" value="" style="sketch=0;points=[[0,0,0],[0.25,0,0],[0.5,0,0],[0.75,0,0],[1,0,0],[0,1,0],[0.25,1,0],[0.5,1,0],[0.75,1,0],[1,1,0],[0,0.25,0],[0,0.5,0],[0,0.75,0],[1,0.25,0],[1,0.5,0],[1,0.75,0]];outlineConnect=0;fontColor=#232F3E;fillColor=#DD344C;strokeColor=#ffffff;dashed=0;verticalLabelPosition=bottom;verticalAlign=top;align=center;html=1;fontSize=12;fontStyle=0;aspect=fixed;shape=mxgraph.aws4.resourceIcon;resIcon=mxgraph.aws4.guardduty;" parent="1" vertex="1">
          <mxGeometry x="1320" y="330" width="50" height="50" as="geometry" />
        </mxCell>
        <mxCell id="SL1x87lAMIjE-oNFavEV-68" value="" style="sketch=0;points=[[0,0,0],[0.25,0,0],[0.5,0,0],[0.75,0,0],[1,0,0],[0,1,0],[0.25,1,0],[0.5,1,0],[0.75,1,0],[1,1,0],[0,0.25,0],[0,0.5,0],[0,0.75,0],[1,0.25,0],[1,0.5,0],[1,0.75,0]];points=[[0,0,0],[0.25,0,0],[0.5,0,0],[0.75,0,0],[1,0,0],[0,1,0],[0.25,1,0],[0.5,1,0],[0.75,1,0],[1,1,0],[0,0.25,0],[0,0.5,0],[0,0.75,0],[1,0.25,0],[1,0.5,0],[1,0.75,0]];outlineConnect=0;fontColor=#232F3E;fillColor=#E7157B;strokeColor=#ffffff;dashed=0;verticalLabelPosition=bottom;verticalAlign=top;align=center;html=1;fontSize=12;fontStyle=0;aspect=fixed;shape=mxgraph.aws4.resourceIcon;resIcon=mxgraph.aws4.cloudtrail;" parent="1" vertex="1">
          <mxGeometry x="1320" y="430" width="50" height="50" as="geometry" />
        </mxCell>
        <mxCell id="SL1x87lAMIjE-oNFavEV-69" value="" style="sketch=0;outlineConnect=0;fontColor=#232F3E;gradientColor=none;fillColor=#7AA116;strokeColor=none;dashed=0;verticalLabelPosition=bottom;verticalAlign=top;align=center;html=1;fontSize=12;fontStyle=0;aspect=fixed;pointerEvents=1;shape=mxgraph.aws4.bucket;" parent="1" vertex="1">
          <mxGeometry x="1320" y="508" width="50" height="52" as="geometry" />
        </mxCell>
        <mxCell id="SL1x87lAMIjE-oNFavEV-70" value="" style="rounded=0;whiteSpace=wrap;html=1;" parent="1" vertex="1">
          <mxGeometry x="10" y="20" width="1230" height="780" as="geometry" />
        </mxCell>
        <mxCell id="SL1x87lAMIjE-oNFavEV-71" value="AWS Cloud" style="points=[[0,0],[0.25,0],[0.5,0],[0.75,0],[1,0],[1,0.25],[1,0.5],[1,0.75],[1,1],[0.75,1],[0.5,1],[0.25,1],[0,1],[0,0.75],[0,0.5],[0,0.25]];outlineConnect=0;gradientColor=none;html=1;whiteSpace=wrap;fontSize=12;fontStyle=0;container=1;pointerEvents=0;collapsible=0;recursiveResize=0;shape=mxgraph.aws4.group;grIcon=mxgraph.aws4.group_aws_cloud_alt;strokeColor=#232F3E;fillColor=none;verticalAlign=top;align=left;spacingLeft=30;fontColor=#232F3E;dashed=0;" parent="1" vertex="1">
          <mxGeometry x="40" y="50" width="1160" height="710" as="geometry" />
        </mxCell>
        <mxCell id="SL1x87lAMIjE-oNFavEV-72" value="Region" style="points=[[0,0],[0.25,0],[0.5,0],[0.75,0],[1,0],[1,0.25],[1,0.5],[1,0.75],[1,1],[0.75,1],[0.5,1],[0.25,1],[0,1],[0,0.75],[0,0.5],[0,0.25]];outlineConnect=0;gradientColor=none;html=1;whiteSpace=wrap;fontSize=12;fontStyle=0;container=1;pointerEvents=0;collapsible=0;recursiveResize=0;shape=mxgraph.aws4.group;grIcon=mxgraph.aws4.group_region;strokeColor=#00A4A6;fillColor=none;verticalAlign=top;align=left;spacingLeft=30;fontColor=#147EBA;dashed=1;" parent="SL1x87lAMIjE-oNFavEV-71" vertex="1">
          <mxGeometry x="30" y="30" width="1090" height="640" as="geometry" />
        </mxCell>
        <mxCell id="SL1x87lAMIjE-oNFavEV-73" value="VPC" style="points=[[0,0],[0.25,0],[0.5,0],[0.75,0],[1,0],[1,0.25],[1,0.5],[1,0.75],[1,1],[0.75,1],[0.5,1],[0.25,1],[0,1],[0,0.75],[0,0.5],[0,0.25]];outlineConnect=0;gradientColor=none;html=1;whiteSpace=wrap;fontSize=12;fontStyle=0;container=1;pointerEvents=0;collapsible=0;recursiveResize=0;shape=mxgraph.aws4.group;grIcon=mxgraph.aws4.group_vpc2;strokeColor=#8C4FFF;fillColor=none;verticalAlign=top;align=left;spacingLeft=30;fontColor=#AAB7B8;dashed=0;" parent="SL1x87lAMIjE-oNFavEV-72" vertex="1">
          <mxGeometry x="320" y="20" width="720" height="500" as="geometry" />
        </mxCell>
        <mxCell id="SL1x87lAMIjE-oNFavEV-74" value="Availability Zone" style="fillColor=none;strokeColor=#147EBA;dashed=1;verticalAlign=top;fontStyle=0;fontColor=#147EBA;whiteSpace=wrap;html=1;direction=east;" parent="SL1x87lAMIjE-oNFavEV-73" vertex="1">
          <mxGeometry x="50" y="20" width="620" height="140" as="geometry" />
        </mxCell>
        <mxCell id="SL1x87lAMIjE-oNFavEV-75" value="Private subnet" style="points=[[0,0],[0.25,0],[0.5,0],[0.75,0],[1,0],[1,0.25],[1,0.5],[1,0.75],[1,1],[0.75,1],[0.5,1],[0.25,1],[0,1],[0,0.75],[0,0.5],[0,0.25]];outlineConnect=0;gradientColor=none;html=1;whiteSpace=wrap;fontSize=12;fontStyle=0;container=1;pointerEvents=0;collapsible=0;recursiveResize=0;shape=mxgraph.aws4.group;grIcon=mxgraph.aws4.group_security_group;grStroke=0;strokeColor=#00A4A6;fillColor=#E6F6F7;verticalAlign=top;align=left;spacingLeft=30;fontColor=#147EBA;dashed=0;" parent="SL1x87lAMIjE-oNFavEV-73" vertex="1">
          <mxGeometry x="220" y="30" width="280" height="120" as="geometry" />
        </mxCell>
        <mxCell id="SL1x87lAMIjE-oNFavEV-76" value="Public subnet" style="points=[[0,0],[0.25,0],[0.5,0],[0.75,0],[1,0],[1,0.25],[1,0.5],[1,0.75],[1,1],[0.75,1],[0.5,1],[0.25,1],[0,1],[0,0.75],[0,0.5],[0,0.25]];outlineConnect=0;gradientColor=none;html=1;whiteSpace=wrap;fontSize=12;fontStyle=0;container=1;pointerEvents=0;collapsible=0;recursiveResize=0;shape=mxgraph.aws4.group;grIcon=mxgraph.aws4.group_security_group;grStroke=0;strokeColor=#7AA116;fillColor=#F2F6E8;verticalAlign=top;align=left;spacingLeft=30;fontColor=#248814;dashed=0;" parent="SL1x87lAMIjE-oNFavEV-73" vertex="1">
          <mxGeometry x="70" y="30" width="130" height="120" as="geometry" />
        </mxCell>
        <mxCell id="SL1x87lAMIjE-oNFavEV-77" value="Private subnet" style="points=[[0,0],[0.25,0],[0.5,0],[0.75,0],[1,0],[1,0.25],[1,0.5],[1,0.75],[1,1],[0.75,1],[0.5,1],[0.25,1],[0,1],[0,0.75],[0,0.5],[0,0.25]];outlineConnect=0;gradientColor=none;html=1;whiteSpace=wrap;fontSize=12;fontStyle=0;container=1;pointerEvents=0;collapsible=0;recursiveResize=0;shape=mxgraph.aws4.group;grIcon=mxgraph.aws4.group_security_group;grStroke=0;strokeColor=#00A4A6;fillColor=#E6F6F7;verticalAlign=top;align=left;spacingLeft=30;fontColor=#147EBA;dashed=0;" parent="SL1x87lAMIjE-oNFavEV-73" vertex="1">
          <mxGeometry x="520" y="30" width="130" height="120" as="geometry" />
        </mxCell>
        <mxCell id="SL1x87lAMIjE-oNFavEV-78" value="" style="sketch=0;points=[[0,0,0],[0.25,0,0],[0.5,0,0],[0.75,0,0],[1,0,0],[0,1,0],[0.25,1,0],[0.5,1,0],[0.75,1,0],[1,1,0],[0,0.25,0],[0,0.5,0],[0,0.75,0],[1,0.25,0],[1,0.5,0],[1,0.75,0]];outlineConnect=0;fontColor=#232F3E;fillColor=#C925D1;strokeColor=#ffffff;dashed=0;verticalLabelPosition=bottom;verticalAlign=top;align=center;html=1;fontSize=12;fontStyle=0;aspect=fixed;shape=mxgraph.aws4.resourceIcon;resIcon=mxgraph.aws4.rds;" parent="SL1x87lAMIjE-oNFavEV-77" vertex="1">
          <mxGeometry x="40" y="50" width="50" height="50" as="geometry" />
        </mxCell>
        <mxCell id="SL1x87lAMIjE-oNFavEV-79" value="Availability Zone" style="fillColor=none;strokeColor=#147EBA;dashed=1;verticalAlign=top;fontStyle=0;fontColor=#147EBA;whiteSpace=wrap;html=1;direction=east;" parent="SL1x87lAMIjE-oNFavEV-73" vertex="1">
          <mxGeometry x="50" y="180" width="620" height="140" as="geometry" />
        </mxCell>
        <mxCell id="SL1x87lAMIjE-oNFavEV-80" value="Availability Zone" style="fillColor=none;strokeColor=#147EBA;dashed=1;verticalAlign=top;fontStyle=0;fontColor=#147EBA;whiteSpace=wrap;html=1;direction=east;" parent="SL1x87lAMIjE-oNFavEV-73" vertex="1">
          <mxGeometry x="50" y="340" width="620" height="140" as="geometry" />
        </mxCell>
        <mxCell id="SL1x87lAMIjE-oNFavEV-81" value="Public subnet" style="points=[[0,0],[0.25,0],[0.5,0],[0.75,0],[1,0],[1,0.25],[1,0.5],[1,0.75],[1,1],[0.75,1],[0.5,1],[0.25,1],[0,1],[0,0.75],[0,0.5],[0,0.25]];outlineConnect=0;gradientColor=none;html=1;whiteSpace=wrap;fontSize=12;fontStyle=0;container=1;pointerEvents=0;collapsible=0;recursiveResize=0;shape=mxgraph.aws4.group;grIcon=mxgraph.aws4.group_security_group;grStroke=0;strokeColor=#7AA116;fillColor=#F2F6E8;verticalAlign=top;align=left;spacingLeft=30;fontColor=#248814;dashed=0;" parent="SL1x87lAMIjE-oNFavEV-73" vertex="1">
          <mxGeometry x="70" y="190" width="130" height="120" as="geometry" />
        </mxCell>
        <mxCell id="SL1x87lAMIjE-oNFavEV-82" value="" style="sketch=0;outlineConnect=0;fontColor=#232F3E;gradientColor=none;fillColor=#8C4FFF;strokeColor=none;dashed=0;verticalLabelPosition=bottom;verticalAlign=top;align=center;html=1;fontSize=12;fontStyle=0;aspect=fixed;pointerEvents=1;shape=mxgraph.aws4.application_load_balancer;" parent="SL1x87lAMIjE-oNFavEV-81" vertex="1">
          <mxGeometry x="40" y="45" width="50" height="50" as="geometry" />
        </mxCell>
        <mxCell id="SL1x87lAMIjE-oNFavEV-83" value="ALB" style="text;html=1;align=center;verticalAlign=middle;whiteSpace=wrap;rounded=0;" parent="SL1x87lAMIjE-oNFavEV-81" vertex="1">
          <mxGeometry x="35" y="90" width="60" height="30" as="geometry" />
        </mxCell>
        <mxCell id="SL1x87lAMIjE-oNFavEV-84" value="Public subnet" style="points=[[0,0],[0.25,0],[0.5,0],[0.75,0],[1,0],[1,0.25],[1,0.5],[1,0.75],[1,1],[0.75,1],[0.5,1],[0.25,1],[0,1],[0,0.75],[0,0.5],[0,0.25]];outlineConnect=0;gradientColor=none;html=1;whiteSpace=wrap;fontSize=12;fontStyle=0;container=1;pointerEvents=0;collapsible=0;recursiveResize=0;shape=mxgraph.aws4.group;grIcon=mxgraph.aws4.group_security_group;grStroke=0;strokeColor=#7AA116;fillColor=#F2F6E8;verticalAlign=top;align=left;spacingLeft=30;fontColor=#248814;dashed=0;" parent="SL1x87lAMIjE-oNFavEV-73" vertex="1">
          <mxGeometry x="70" y="350" width="130" height="120" as="geometry" />
        </mxCell>
        <mxCell id="SL1x87lAMIjE-oNFavEV-85" value="Private subnet" style="points=[[0,0],[0.25,0],[0.5,0],[0.75,0],[1,0],[1,0.25],[1,0.5],[1,0.75],[1,1],[0.75,1],[0.5,1],[0.25,1],[0,1],[0,0.75],[0,0.5],[0,0.25]];outlineConnect=0;gradientColor=none;html=1;whiteSpace=wrap;fontSize=12;fontStyle=0;container=1;pointerEvents=0;collapsible=0;recursiveResize=0;shape=mxgraph.aws4.group;grIcon=mxgraph.aws4.group_security_group;grStroke=0;strokeColor=#00A4A6;fillColor=#E6F6F7;verticalAlign=top;align=left;spacingLeft=30;fontColor=#147EBA;dashed=0;" parent="SL1x87lAMIjE-oNFavEV-73" vertex="1">
          <mxGeometry x="220" y="190" width="280" height="120" as="geometry" />
        </mxCell>
        <mxCell id="SL1x87lAMIjE-oNFavEV-86" value="Private subnet" style="points=[[0,0],[0.25,0],[0.5,0],[0.75,0],[1,0],[1,0.25],[1,0.5],[1,0.75],[1,1],[0.75,1],[0.5,1],[0.25,1],[0,1],[0,0.75],[0,0.5],[0,0.25]];outlineConnect=0;gradientColor=none;html=1;whiteSpace=wrap;fontSize=12;fontStyle=0;container=1;pointerEvents=0;collapsible=0;recursiveResize=0;shape=mxgraph.aws4.group;grIcon=mxgraph.aws4.group_security_group;grStroke=0;strokeColor=#00A4A6;fillColor=#E6F6F7;verticalAlign=top;align=left;spacingLeft=30;fontColor=#147EBA;dashed=0;" parent="SL1x87lAMIjE-oNFavEV-73" vertex="1">
          <mxGeometry x="220" y="350" width="280" height="120" as="geometry" />
        </mxCell>
        <mxCell id="SL1x87lAMIjE-oNFavEV-87" value="Private subnet" style="points=[[0,0],[0.25,0],[0.5,0],[0.75,0],[1,0],[1,0.25],[1,0.5],[1,0.75],[1,1],[0.75,1],[0.5,1],[0.25,1],[0,1],[0,0.75],[0,0.5],[0,0.25]];outlineConnect=0;gradientColor=none;html=1;whiteSpace=wrap;fontSize=12;fontStyle=0;container=1;pointerEvents=0;collapsible=0;recursiveResize=0;shape=mxgraph.aws4.group;grIcon=mxgraph.aws4.group_security_group;grStroke=0;strokeColor=#00A4A6;fillColor=#E6F6F7;verticalAlign=top;align=left;spacingLeft=30;fontColor=#147EBA;dashed=0;" parent="SL1x87lAMIjE-oNFavEV-73" vertex="1">
          <mxGeometry x="520" y="190" width="130" height="120" as="geometry" />
        </mxCell>
        <mxCell id="SL1x87lAMIjE-oNFavEV-88" value="Private subnet" style="points=[[0,0],[0.25,0],[0.5,0],[0.75,0],[1,0],[1,0.25],[1,0.5],[1,0.75],[1,1],[0.75,1],[0.5,1],[0.25,1],[0,1],[0,0.75],[0,0.5],[0,0.25]];outlineConnect=0;gradientColor=none;html=1;whiteSpace=wrap;fontSize=12;fontStyle=0;container=1;pointerEvents=0;collapsible=0;recursiveResize=0;shape=mxgraph.aws4.group;grIcon=mxgraph.aws4.group_security_group;grStroke=0;strokeColor=#00A4A6;fillColor=#E6F6F7;verticalAlign=top;align=left;spacingLeft=30;fontColor=#147EBA;dashed=0;" parent="SL1x87lAMIjE-oNFavEV-73" vertex="1">
          <mxGeometry x="520" y="350" width="130" height="120" as="geometry" />
        </mxCell>
        <mxCell id="SL1x87lAMIjE-oNFavEV-89" value="" style="sketch=0;outlineConnect=0;fontColor=#232F3E;gradientColor=none;fillColor=#8C4FFF;strokeColor=none;dashed=0;verticalLabelPosition=bottom;verticalAlign=top;align=center;html=1;fontSize=12;fontStyle=0;aspect=fixed;pointerEvents=1;shape=mxgraph.aws4.nat_gateway;" parent="SL1x87lAMIjE-oNFavEV-73" vertex="1">
          <mxGeometry x="110" y="65" width="50" height="50" as="geometry" />
        </mxCell>
        <mxCell id="SL1x87lAMIjE-oNFavEV-90" value="" style="sketch=0;outlineConnect=0;fontColor=#232F3E;gradientColor=none;fillColor=#8C4FFF;strokeColor=none;dashed=0;verticalLabelPosition=bottom;verticalAlign=top;align=center;html=1;fontSize=12;fontStyle=0;aspect=fixed;pointerEvents=1;shape=mxgraph.aws4.nat_gateway;" parent="SL1x87lAMIjE-oNFavEV-73" vertex="1">
          <mxGeometry x="110" y="385" width="50" height="50" as="geometry" />
        </mxCell>
        <mxCell id="SL1x87lAMIjE-oNFavEV-91" value="NAT Gateway" style="text;html=1;align=center;verticalAlign=middle;whiteSpace=wrap;rounded=0;" parent="SL1x87lAMIjE-oNFavEV-73" vertex="1">
          <mxGeometry x="85" y="435" width="105" height="30" as="geometry" />
        </mxCell>
        <mxCell id="SL1x87lAMIjE-oNFavEV-92" value="NAT Gateway" style="text;html=1;align=center;verticalAlign=middle;whiteSpace=wrap;rounded=0;" parent="SL1x87lAMIjE-oNFavEV-73" vertex="1">
          <mxGeometry x="85" y="115" width="105" height="30" as="geometry" />
        </mxCell>
        <mxCell id="SL1x87lAMIjE-oNFavEV-93" value="" style="sketch=0;points=[[0,0,0],[0.25,0,0],[0.5,0,0],[0.75,0,0],[1,0,0],[0,1,0],[0.25,1,0],[0.5,1,0],[0.75,1,0],[1,1,0],[0,0.25,0],[0,0.5,0],[0,0.75,0],[1,0.25,0],[1,0.5,0],[1,0.75,0]];outlineConnect=0;fontColor=#232F3E;fillColor=#C925D1;strokeColor=#ffffff;dashed=0;verticalLabelPosition=bottom;verticalAlign=top;align=center;html=1;fontSize=12;fontStyle=0;aspect=fixed;shape=mxgraph.aws4.resourceIcon;resIcon=mxgraph.aws4.documentdb_with_mongodb_compatibility;" parent="SL1x87lAMIjE-oNFavEV-73" vertex="1">
          <mxGeometry x="560" y="225" width="50" height="50" as="geometry" />
        </mxCell>
        <mxCell id="SL1x87lAMIjE-oNFavEV-94" value="VPC Endpoint" style="text;html=1;align=center;verticalAlign=middle;whiteSpace=wrap;rounded=0;" parent="SL1x87lAMIjE-oNFavEV-73" vertex="1">
          <mxGeometry x="-30" y="290" width="60" height="30" as="geometry" />
        </mxCell>
        <mxCell id="SL1x87lAMIjE-oNFavEV-95" value="DocumentDB" style="text;html=1;align=center;verticalAlign=middle;whiteSpace=wrap;rounded=0;" parent="SL1x87lAMIjE-oNFavEV-73" vertex="1">
          <mxGeometry x="555" y="275" width="60" height="30" as="geometry" />
        </mxCell>
        <mxCell id="SL1x87lAMIjE-oNFavEV-96" value="RDS" style="text;html=1;align=center;verticalAlign=middle;whiteSpace=wrap;rounded=0;" parent="SL1x87lAMIjE-oNFavEV-73" vertex="1">
          <mxGeometry x="555" y="130" width="60" height="30" as="geometry" />
        </mxCell>
        <mxCell id="SL1x87lAMIjE-oNFavEV-97" style="edgeStyle=orthogonalEdgeStyle;rounded=0;orthogonalLoop=1;jettySize=auto;html=1;" parent="SL1x87lAMIjE-oNFavEV-72" source="SL1x87lAMIjE-oNFavEV-98" target="SL1x87lAMIjE-oNFavEV-103" edge="1">
          <mxGeometry relative="1" as="geometry" />
        </mxCell>
        <mxCell id="SL1x87lAMIjE-oNFavEV-98" value="" style="sketch=0;points=[[0,0,0],[0.25,0,0],[0.5,0,0],[0.75,0,0],[1,0,0],[0,1,0],[0.25,1,0],[0.5,1,0],[0.75,1,0],[1,1,0],[0,0.25,0],[0,0.5,0],[0,0.75,0],[1,0.25,0],[1,0.5,0],[1,0.75,0]];outlineConnect=0;fontColor=#232F3E;fillColor=#8C4FFF;strokeColor=#ffffff;dashed=0;verticalLabelPosition=bottom;verticalAlign=top;align=center;html=1;fontSize=12;fontStyle=0;aspect=fixed;shape=mxgraph.aws4.resourceIcon;resIcon=mxgraph.aws4.cloudfront;" parent="SL1x87lAMIjE-oNFavEV-72" vertex="1">
          <mxGeometry x="110" y="255" width="50" height="50" as="geometry" />
        </mxCell>
        <mxCell id="SL1x87lAMIjE-oNFavEV-99" value="" style="sketch=0;points=[[0,0,0],[0.25,0,0],[0.5,0,0],[0.75,0,0],[1,0,0],[0,1,0],[0.25,1,0],[0.5,1,0],[0.75,1,0],[1,1,0],[0,0.25,0],[0,0.5,0],[0,0.75,0],[1,0.25,0],[1,0.5,0],[1,0.75,0]];outlineConnect=0;fontColor=#232F3E;fillColor=#DD344C;strokeColor=#ffffff;dashed=0;verticalLabelPosition=bottom;verticalAlign=top;align=center;html=1;fontSize=12;fontStyle=0;aspect=fixed;shape=mxgraph.aws4.resourceIcon;resIcon=mxgraph.aws4.certificate_manager_3;" parent="SL1x87lAMIjE-oNFavEV-72" vertex="1">
          <mxGeometry x="115" y="370" width="50" height="50" as="geometry" />
        </mxCell>
        <mxCell id="SL1x87lAMIjE-oNFavEV-100" value="Cloudfront" style="text;html=1;align=center;verticalAlign=middle;whiteSpace=wrap;rounded=0;" parent="SL1x87lAMIjE-oNFavEV-72" vertex="1">
          <mxGeometry x="105" y="305" width="60" height="30" as="geometry" />
        </mxCell>
        <mxCell id="SL1x87lAMIjE-oNFavEV-101" value="" style="sketch=0;outlineConnect=0;fontColor=#232F3E;gradientColor=none;fillColor=#8C4FFF;strokeColor=none;dashed=0;verticalLabelPosition=bottom;verticalAlign=top;align=center;html=1;fontSize=12;fontStyle=0;aspect=fixed;pointerEvents=1;shape=mxgraph.aws4.endpoints;" parent="SL1x87lAMIjE-oNFavEV-72" vertex="1">
          <mxGeometry x="290" y="255" width="50" height="50" as="geometry" />
        </mxCell>
        <mxCell id="SL1x87lAMIjE-oNFavEV-102" style="edgeStyle=orthogonalEdgeStyle;rounded=0;orthogonalLoop=1;jettySize=auto;html=1;" parent="SL1x87lAMIjE-oNFavEV-72" source="SL1x87lAMIjE-oNFavEV-101" target="SL1x87lAMIjE-oNFavEV-82" edge="1">
          <mxGeometry relative="1" as="geometry" />
        </mxCell>
        <mxCell id="SL1x87lAMIjE-oNFavEV-103" value="" style="sketch=0;points=[[0,0,0],[0.25,0,0],[0.5,0,0],[0.75,0,0],[1,0,0],[0,1,0],[0.25,1,0],[0.5,1,0],[0.75,1,0],[1,1,0],[0,0.25,0],[0,0.5,0],[0,0.75,0],[1,0.25,0],[1,0.5,0],[1,0.75,0]];outlineConnect=0;fontColor=#232F3E;fillColor=#E7157B;strokeColor=#ffffff;dashed=0;verticalLabelPosition=bottom;verticalAlign=top;align=center;html=1;fontSize=12;fontStyle=0;aspect=fixed;shape=mxgraph.aws4.resourceIcon;resIcon=mxgraph.aws4.api_gateway;" parent="SL1x87lAMIjE-oNFavEV-72" vertex="1">
          <mxGeometry x="200" y="255" width="50" height="50" as="geometry" />
        </mxCell>
        <mxCell id="SL1x87lAMIjE-oNFavEV-104" style="edgeStyle=orthogonalEdgeStyle;rounded=0;orthogonalLoop=1;jettySize=auto;html=1;" parent="SL1x87lAMIjE-oNFavEV-72" source="SL1x87lAMIjE-oNFavEV-103" target="SL1x87lAMIjE-oNFavEV-101" edge="1">
          <mxGeometry relative="1" as="geometry" />
        </mxCell>
        <mxCell id="SL1x87lAMIjE-oNFavEV-105" style="edgeStyle=orthogonalEdgeStyle;rounded=0;orthogonalLoop=1;jettySize=auto;html=1;" parent="SL1x87lAMIjE-oNFavEV-72" source="SL1x87lAMIjE-oNFavEV-106" target="SL1x87lAMIjE-oNFavEV-98" edge="1">
          <mxGeometry relative="1" as="geometry" />
        </mxCell>
        <mxCell id="SL1x87lAMIjE-oNFavEV-106" value="" style="sketch=0;points=[[0,0,0],[0.25,0,0],[0.5,0,0],[0.75,0,0],[1,0,0],[0,1,0],[0.25,1,0],[0.5,1,0],[0.75,1,0],[1,1,0],[0,0.25,0],[0,0.5,0],[0,0.75,0],[1,0.25,0],[1,0.5,0],[1,0.75,0]];outlineConnect=0;fontColor=#232F3E;fillColor=#8C4FFF;strokeColor=#ffffff;dashed=0;verticalLabelPosition=bottom;verticalAlign=top;align=center;html=1;fontSize=12;fontStyle=0;aspect=fixed;shape=mxgraph.aws4.resourceIcon;resIcon=mxgraph.aws4.route_53;" parent="SL1x87lAMIjE-oNFavEV-72" vertex="1">
          <mxGeometry x="20" y="255" width="50" height="50" as="geometry" />
        </mxCell>
        <mxCell id="SL1x87lAMIjE-oNFavEV-107" value="API Gateway" style="text;html=1;align=center;verticalAlign=middle;whiteSpace=wrap;rounded=0;" parent="SL1x87lAMIjE-oNFavEV-72" vertex="1">
          <mxGeometry x="195" y="305" width="60" height="30" as="geometry" />
        </mxCell>
        <mxCell id="SL1x87lAMIjE-oNFavEV-108" style="edgeStyle=orthogonalEdgeStyle;rounded=0;orthogonalLoop=1;jettySize=auto;html=1;entryX=0.583;entryY=0.5;entryDx=0;entryDy=0;entryPerimeter=0;" parent="SL1x87lAMIjE-oNFavEV-72" source="SL1x87lAMIjE-oNFavEV-99" target="SL1x87lAMIjE-oNFavEV-100" edge="1">
          <mxGeometry relative="1" as="geometry" />
        </mxCell>
        <mxCell id="SL1x87lAMIjE-oNFavEV-109" value="" style="sketch=0;points=[[0,0,0],[0.25,0,0],[0.5,0,0],[0.75,0,0],[1,0,0],[0,1,0],[0.25,1,0],[0.5,1,0],[0.75,1,0],[1,1,0],[0,0.25,0],[0,0.5,0],[0,0.75,0],[1,0.25,0],[1,0.5,0],[1,0.75,0]];outlineConnect=0;fontColor=#232F3E;fillColor=#ED7100;strokeColor=#ffffff;dashed=0;verticalLabelPosition=bottom;verticalAlign=top;align=center;html=1;fontSize=12;fontStyle=0;aspect=fixed;shape=mxgraph.aws4.resourceIcon;resIcon=mxgraph.aws4.ecr;" parent="SL1x87lAMIjE-oNFavEV-72" vertex="1">
          <mxGeometry x="655" y="540" width="50" height="50" as="geometry" />
        </mxCell>
        <mxCell id="SL1x87lAMIjE-oNFavEV-110" value="ECR" style="text;html=1;align=center;verticalAlign=middle;whiteSpace=wrap;rounded=0;" parent="SL1x87lAMIjE-oNFavEV-72" vertex="1">
          <mxGeometry x="650" y="590" width="60" height="30" as="geometry" />
        </mxCell>
        <mxCell id="SL1x87lAMIjE-oNFavEV-111" value="Route53&lt;div&gt;&lt;br&gt;&lt;/div&gt;" style="text;html=1;align=center;verticalAlign=middle;whiteSpace=wrap;rounded=0;" parent="1" vertex="1">
          <mxGeometry x="90" y="390" width="60" height="30" as="geometry" />
        </mxCell>
        <mxCell id="SL1x87lAMIjE-oNFavEV-112" value="SSL" style="text;html=1;align=center;verticalAlign=middle;whiteSpace=wrap;rounded=0;" parent="1" vertex="1">
          <mxGeometry x="180" y="500" width="60" height="30" as="geometry" />
        </mxCell>
        <mxCell id="SL1x87lAMIjE-oNFavEV-113" value="" style="outlineConnect=0;gradientColor=none;html=1;whiteSpace=wrap;fontSize=12;fontStyle=0;strokeColor=#FF9900;fillColor=none;verticalAlign=top;align=center;fontColor=#FF9900;dashed=0;spacingTop=3;" parent="1" vertex="1">
          <mxGeometry x="630" y="150" width="240" height="410" as="geometry" />
        </mxCell>
        <mxCell id="SL1x87lAMIjE-oNFavEV-114" value="" style="sketch=0;points=[[0,0,0],[0.25,0,0],[0.5,0,0],[0.75,0,0],[1,0,0],[0,1,0],[0.25,1,0],[0.5,1,0],[0.75,1,0],[1,1,0],[0,0.25,0],[0,0.5,0],[0,0.75,0],[1,0.25,0],[1,0.5,0],[1,0.75,0]];outlineConnect=0;fontColor=#232F3E;fillColor=#ED7100;strokeColor=#ffffff;dashed=0;verticalLabelPosition=bottom;verticalAlign=top;align=center;html=1;fontSize=12;fontStyle=0;aspect=fixed;shape=mxgraph.aws4.resourceIcon;resIcon=mxgraph.aws4.eks;" parent="1" vertex="1">
          <mxGeometry x="630" y="150" width="30" height="30" as="geometry" />
        </mxCell>
        <mxCell id="SL1x87lAMIjE-oNFavEV-115" value="" style="outlineConnect=0;gradientColor=none;html=1;whiteSpace=wrap;fontSize=12;fontStyle=0;strokeColor=#879196;fillColor=none;verticalAlign=top;align=center;fontColor=#879196;dashed=1;spacingTop=3;" parent="1" vertex="1">
          <mxGeometry x="645" y="480" width="220" height="70" as="geometry" />
        </mxCell>
        <mxCell id="SL1x87lAMIjE-oNFavEV-116" value="" style="aspect=fixed;sketch=0;html=1;dashed=0;whitespace=wrap;fillColor=#2875E2;strokeColor=#ffffff;points=[[0.005,0.63,0],[0.1,0.2,0],[0.9,0.2,0],[0.5,0,0],[0.995,0.63,0],[0.72,0.99,0],[0.5,1,0],[0.28,0.99,0]];shape=mxgraph.kubernetes.icon2;kubernetesLabel=1;prIcon=pod" parent="1" vertex="1">
          <mxGeometry x="655" y="491" width="50" height="48" as="geometry" />
        </mxCell>
        <mxCell id="SL1x87lAMIjE-oNFavEV-117" value="" style="aspect=fixed;sketch=0;html=1;dashed=0;whitespace=wrap;fillColor=#2875E2;strokeColor=#ffffff;points=[[0.005,0.63,0],[0.1,0.2,0],[0.9,0.2,0],[0.5,0,0],[0.995,0.63,0],[0.72,0.99,0],[0.5,1,0],[0.28,0.99,0]];shape=mxgraph.kubernetes.icon2;kubernetesLabel=1;prIcon=pod" parent="1" vertex="1">
          <mxGeometry x="725" y="491" width="50" height="48" as="geometry" />
        </mxCell>
        <mxCell id="SL1x87lAMIjE-oNFavEV-118" value="" style="aspect=fixed;sketch=0;html=1;dashed=0;whitespace=wrap;fillColor=#2875E2;strokeColor=#ffffff;points=[[0.005,0.63,0],[0.1,0.2,0],[0.9,0.2,0],[0.5,0,0],[0.995,0.63,0],[0.72,0.99,0],[0.5,1,0],[0.28,0.99,0]];shape=mxgraph.kubernetes.icon2;kubernetesLabel=1;prIcon=pod" parent="1" vertex="1">
          <mxGeometry x="795" y="491" width="50" height="48" as="geometry" />
        </mxCell>
        <mxCell id="SL1x87lAMIjE-oNFavEV-119" value="Node Group" style="text;html=1;align=center;verticalAlign=middle;whiteSpace=wrap;rounded=0;" parent="1" vertex="1">
          <mxGeometry x="655" y="461" width="190" height="30" as="geometry" />
        </mxCell>
        <mxCell id="SL1x87lAMIjE-oNFavEV-120" value="" style="outlineConnect=0;gradientColor=none;html=1;whiteSpace=wrap;fontSize=12;fontStyle=0;strokeColor=#879196;fillColor=none;verticalAlign=top;align=center;fontColor=#879196;dashed=1;spacingTop=3;" parent="1" vertex="1">
          <mxGeometry x="640" y="335" width="220" height="70" as="geometry" />
        </mxCell>
        <mxCell id="SL1x87lAMIjE-oNFavEV-121" value="" style="aspect=fixed;sketch=0;html=1;dashed=0;whitespace=wrap;fillColor=#2875E2;strokeColor=#ffffff;points=[[0.005,0.63,0],[0.1,0.2,0],[0.9,0.2,0],[0.5,0,0],[0.995,0.63,0],[0.72,0.99,0],[0.5,1,0],[0.28,0.99,0]];shape=mxgraph.kubernetes.icon2;kubernetesLabel=1;prIcon=pod" parent="1" vertex="1">
          <mxGeometry x="650" y="346" width="50" height="48" as="geometry" />
        </mxCell>
        <mxCell id="SL1x87lAMIjE-oNFavEV-122" value="" style="aspect=fixed;sketch=0;html=1;dashed=0;whitespace=wrap;fillColor=#2875E2;strokeColor=#ffffff;points=[[0.005,0.63,0],[0.1,0.2,0],[0.9,0.2,0],[0.5,0,0],[0.995,0.63,0],[0.72,0.99,0],[0.5,1,0],[0.28,0.99,0]];shape=mxgraph.kubernetes.icon2;kubernetesLabel=1;prIcon=pod" parent="1" vertex="1">
          <mxGeometry x="720" y="346" width="50" height="48" as="geometry" />
        </mxCell>
        <mxCell id="SL1x87lAMIjE-oNFavEV-123" value="" style="aspect=fixed;sketch=0;html=1;dashed=0;whitespace=wrap;fillColor=#2875E2;strokeColor=#ffffff;points=[[0.005,0.63,0],[0.1,0.2,0],[0.9,0.2,0],[0.5,0,0],[0.995,0.63,0],[0.72,0.99,0],[0.5,1,0],[0.28,0.99,0]];shape=mxgraph.kubernetes.icon2;kubernetesLabel=1;prIcon=pod" parent="1" vertex="1">
          <mxGeometry x="790" y="346" width="50" height="48" as="geometry" />
        </mxCell>
        <mxCell id="SL1x87lAMIjE-oNFavEV-124" value="Node Group" style="text;html=1;align=center;verticalAlign=middle;whiteSpace=wrap;rounded=0;" parent="1" vertex="1">
          <mxGeometry x="705" y="305" width="90" height="30" as="geometry" />
        </mxCell>
        <mxCell id="SL1x87lAMIjE-oNFavEV-125" value="" style="outlineConnect=0;gradientColor=none;html=1;whiteSpace=wrap;fontSize=12;fontStyle=0;strokeColor=#879196;fillColor=none;verticalAlign=top;align=center;fontColor=#879196;dashed=1;spacingTop=3;" parent="1" vertex="1">
          <mxGeometry x="640" y="180" width="220" height="70" as="geometry" />
        </mxCell>
        <mxCell id="SL1x87lAMIjE-oNFavEV-126" value="" style="aspect=fixed;sketch=0;html=1;dashed=0;whitespace=wrap;fillColor=#2875E2;strokeColor=#ffffff;points=[[0.005,0.63,0],[0.1,0.2,0],[0.9,0.2,0],[0.5,0,0],[0.995,0.63,0],[0.72,0.99,0],[0.5,1,0],[0.28,0.99,0]];shape=mxgraph.kubernetes.icon2;kubernetesLabel=1;prIcon=pod" parent="1" vertex="1">
          <mxGeometry x="650" y="191" width="50" height="48" as="geometry" />
        </mxCell>
        <mxCell id="SL1x87lAMIjE-oNFavEV-127" value="" style="aspect=fixed;sketch=0;html=1;dashed=0;whitespace=wrap;fillColor=#2875E2;strokeColor=#ffffff;points=[[0.005,0.63,0],[0.1,0.2,0],[0.9,0.2,0],[0.5,0,0],[0.995,0.63,0],[0.72,0.99,0],[0.5,1,0],[0.28,0.99,0]];shape=mxgraph.kubernetes.icon2;kubernetesLabel=1;prIcon=pod" parent="1" vertex="1">
          <mxGeometry x="720" y="191" width="50" height="48" as="geometry" />
        </mxCell>
        <mxCell id="SL1x87lAMIjE-oNFavEV-128" value="" style="aspect=fixed;sketch=0;html=1;dashed=0;whitespace=wrap;fillColor=#2875E2;strokeColor=#ffffff;points=[[0.005,0.63,0],[0.1,0.2,0],[0.9,0.2,0],[0.5,0,0],[0.995,0.63,0],[0.72,0.99,0],[0.5,1,0],[0.28,0.99,0]];shape=mxgraph.kubernetes.icon2;kubernetesLabel=1;prIcon=pod" parent="1" vertex="1">
          <mxGeometry x="790" y="191" width="50" height="48" as="geometry" />
        </mxCell>
        <mxCell id="SL1x87lAMIjE-oNFavEV-129" value="Node Group" style="text;html=1;align=center;verticalAlign=middle;whiteSpace=wrap;rounded=0;" parent="1" vertex="1">
          <mxGeometry x="686" y="150" width="90" height="30" as="geometry" />
        </mxCell>
        <mxCell id="SL1x87lAMIjE-oNFavEV-130" style="edgeStyle=orthogonalEdgeStyle;rounded=0;orthogonalLoop=1;jettySize=auto;html=1;entryX=0.011;entryY=0.353;entryDx=0;entryDy=0;entryPerimeter=0;" parent="1" source="SL1x87lAMIjE-oNFavEV-82" target="SL1x87lAMIjE-oNFavEV-120" edge="1">
          <mxGeometry relative="1" as="geometry" />
        </mxCell>
        <mxCell id="SL1x87lAMIjE-oNFavEV-131" style="edgeStyle=orthogonalEdgeStyle;rounded=0;orthogonalLoop=1;jettySize=auto;html=1;" parent="1" source="SL1x87lAMIjE-oNFavEV-109" target="SL1x87lAMIjE-oNFavEV-113" edge="1">
          <mxGeometry relative="1" as="geometry" />
        </mxCell>
        <mxCell id="SL1x87lAMIjE-oNFavEV-132" value="" style="rounded=0;whiteSpace=wrap;html=1;" parent="1" vertex="1">
          <mxGeometry x="1280" y="20" width="160" height="781" as="geometry" />
        </mxCell>
        <mxCell id="SL1x87lAMIjE-oNFavEV-133" value="" style="sketch=0;points=[[0,0,0],[0.25,0,0],[0.5,0,0],[0.75,0,0],[1,0,0],[0,1,0],[0.25,1,0],[0.5,1,0],[0.75,1,0],[1,1,0],[0,0.25,0],[0,0.5,0],[0,0.75,0],[1,0.25,0],[1,0.5,0],[1,0.75,0]];points=[[0,0,0],[0.25,0,0],[0.5,0,0],[0.75,0,0],[1,0,0],[0,1,0],[0.25,1,0],[0.5,1,0],[0.75,1,0],[1,1,0],[0,0.25,0],[0,0.5,0],[0,0.75,0],[1,0.25,0],[1,0.5,0],[1,0.75,0]];outlineConnect=0;fontColor=#232F3E;fillColor=#E7157B;strokeColor=#ffffff;dashed=0;verticalLabelPosition=bottom;verticalAlign=top;align=center;html=1;fontSize=12;fontStyle=0;aspect=fixed;shape=mxgraph.aws4.resourceIcon;resIcon=mxgraph.aws4.cloudwatch_2;" parent="1" vertex="1">
          <mxGeometry x="1320" y="60" width="50" height="50" as="geometry" />
        </mxCell>
        <mxCell id="SL1x87lAMIjE-oNFavEV-134" value="" style="sketch=0;points=[[0,0,0],[0.25,0,0],[0.5,0,0],[0.75,0,0],[1,0,0],[0,1,0],[0.25,1,0],[0.5,1,0],[0.75,1,0],[1,1,0],[0,0.25,0],[0,0.5,0],[0,0.75,0],[1,0.25,0],[1,0.5,0],[1,0.75,0]];outlineConnect=0;fontColor=#232F3E;fillColor=#E7157B;strokeColor=#ffffff;dashed=0;verticalLabelPosition=bottom;verticalAlign=top;align=center;html=1;fontSize=12;fontStyle=0;aspect=fixed;shape=mxgraph.aws4.resourceIcon;resIcon=mxgraph.aws4.sns;" parent="1" vertex="1">
          <mxGeometry x="1320" y="150" width="50" height="50" as="geometry" />
        </mxCell>
        <mxCell id="SL1x87lAMIjE-oNFavEV-135" value="" style="sketch=0;outlineConnect=0;fontColor=#232F3E;gradientColor=none;fillColor=#7AA116;strokeColor=none;dashed=0;verticalLabelPosition=bottom;verticalAlign=top;align=center;html=1;fontSize=12;fontStyle=0;aspect=fixed;pointerEvents=1;shape=mxgraph.aws4.bucket_with_objects;" parent="1" vertex="1">
          <mxGeometry x="1320" y="239" width="50" height="52" as="geometry" />
        </mxCell>
        <mxCell id="SL1x87lAMIjE-oNFavEV-136" value="" style="sketch=0;points=[[0,0,0],[0.25,0,0],[0.5,0,0],[0.75,0,0],[1,0,0],[0,1,0],[0.25,1,0],[0.5,1,0],[0.75,1,0],[1,1,0],[0,0.25,0],[0,0.5,0],[0,0.75,0],[1,0.25,0],[1,0.5,0],[1,0.75,0]];outlineConnect=0;fontColor=#232F3E;fillColor=#DD344C;strokeColor=#ffffff;dashed=0;verticalLabelPosition=bottom;verticalAlign=top;align=center;html=1;fontSize=12;fontStyle=0;aspect=fixed;shape=mxgraph.aws4.resourceIcon;resIcon=mxgraph.aws4.guardduty;" parent="1" vertex="1">
          <mxGeometry x="1320" y="330" width="50" height="50" as="geometry" />
        </mxCell>
        <mxCell id="SL1x87lAMIjE-oNFavEV-137" value="" style="sketch=0;points=[[0,0,0],[0.25,0,0],[0.5,0,0],[0.75,0,0],[1,0,0],[0,1,0],[0.25,1,0],[0.5,1,0],[0.75,1,0],[1,1,0],[0,0.25,0],[0,0.5,0],[0,0.75,0],[1,0.25,0],[1,0.5,0],[1,0.75,0]];points=[[0,0,0],[0.25,0,0],[0.5,0,0],[0.75,0,0],[1,0,0],[0,1,0],[0.25,1,0],[0.5,1,0],[0.75,1,0],[1,1,0],[0,0.25,0],[0,0.5,0],[0,0.75,0],[1,0.25,0],[1,0.5,0],[1,0.75,0]];outlineConnect=0;fontColor=#232F3E;fillColor=#E7157B;strokeColor=#ffffff;dashed=0;verticalLabelPosition=bottom;verticalAlign=top;align=center;html=1;fontSize=12;fontStyle=0;aspect=fixed;shape=mxgraph.aws4.resourceIcon;resIcon=mxgraph.aws4.cloudtrail;" parent="1" vertex="1">
          <mxGeometry x="1320" y="430" width="50" height="50" as="geometry" />
        </mxCell>
        <mxCell id="SL1x87lAMIjE-oNFavEV-138" value="" style="sketch=0;outlineConnect=0;fontColor=#232F3E;gradientColor=none;fillColor=#7AA116;strokeColor=none;dashed=0;verticalLabelPosition=bottom;verticalAlign=top;align=center;html=1;fontSize=12;fontStyle=0;aspect=fixed;pointerEvents=1;shape=mxgraph.aws4.bucket;" parent="1" vertex="1">
          <mxGeometry x="1320" y="508" width="50" height="52" as="geometry" />
        </mxCell>
        <mxCell id="-9UJIUt_7y069LJeyWJl-1" value="" style="rounded=0;whiteSpace=wrap;html=1;" vertex="1" parent="1">
          <mxGeometry x="10" y="20" width="1230" height="780" as="geometry" />
        </mxCell>
        <mxCell id="-9UJIUt_7y069LJeyWJl-2" value="AWS Cloud" style="points=[[0,0],[0.25,0],[0.5,0],[0.75,0],[1,0],[1,0.25],[1,0.5],[1,0.75],[1,1],[0.75,1],[0.5,1],[0.25,1],[0,1],[0,0.75],[0,0.5],[0,0.25]];outlineConnect=0;gradientColor=none;html=1;whiteSpace=wrap;fontSize=12;fontStyle=0;container=1;pointerEvents=0;collapsible=0;recursiveResize=0;shape=mxgraph.aws4.group;grIcon=mxgraph.aws4.group_aws_cloud_alt;strokeColor=#232F3E;fillColor=none;verticalAlign=top;align=left;spacingLeft=30;fontColor=#232F3E;dashed=0;" vertex="1" parent="1">
          <mxGeometry x="40" y="50" width="1160" height="710" as="geometry" />
        </mxCell>
        <mxCell id="-9UJIUt_7y069LJeyWJl-3" value="Region" style="points=[[0,0],[0.25,0],[0.5,0],[0.75,0],[1,0],[1,0.25],[1,0.5],[1,0.75],[1,1],[0.75,1],[0.5,1],[0.25,1],[0,1],[0,0.75],[0,0.5],[0,0.25]];outlineConnect=0;gradientColor=none;html=1;whiteSpace=wrap;fontSize=12;fontStyle=0;container=1;pointerEvents=0;collapsible=0;recursiveResize=0;shape=mxgraph.aws4.group;grIcon=mxgraph.aws4.group_region;strokeColor=#00A4A6;fillColor=none;verticalAlign=top;align=left;spacingLeft=30;fontColor=#147EBA;dashed=1;" vertex="1" parent="-9UJIUt_7y069LJeyWJl-2">
          <mxGeometry x="30" y="30" width="1090" height="640" as="geometry" />
        </mxCell>
        <mxCell id="-9UJIUt_7y069LJeyWJl-4" value="VPC" style="points=[[0,0],[0.25,0],[0.5,0],[0.75,0],[1,0],[1,0.25],[1,0.5],[1,0.75],[1,1],[0.75,1],[0.5,1],[0.25,1],[0,1],[0,0.75],[0,0.5],[0,0.25]];outlineConnect=0;gradientColor=none;html=1;whiteSpace=wrap;fontSize=12;fontStyle=0;container=1;pointerEvents=0;collapsible=0;recursiveResize=0;shape=mxgraph.aws4.group;grIcon=mxgraph.aws4.group_vpc2;strokeColor=#8C4FFF;fillColor=none;verticalAlign=top;align=left;spacingLeft=30;fontColor=#AAB7B8;dashed=0;" vertex="1" parent="-9UJIUt_7y069LJeyWJl-3">
          <mxGeometry x="320" y="20" width="720" height="500" as="geometry" />
        </mxCell>
        <mxCell id="-9UJIUt_7y069LJeyWJl-5" value="Availability Zone" style="fillColor=none;strokeColor=#147EBA;dashed=1;verticalAlign=top;fontStyle=0;fontColor=#147EBA;whiteSpace=wrap;html=1;direction=east;" vertex="1" parent="-9UJIUt_7y069LJeyWJl-4">
          <mxGeometry x="50" y="20" width="620" height="140" as="geometry" />
        </mxCell>
        <mxCell id="-9UJIUt_7y069LJeyWJl-6" value="Private subnet" style="points=[[0,0],[0.25,0],[0.5,0],[0.75,0],[1,0],[1,0.25],[1,0.5],[1,0.75],[1,1],[0.75,1],[0.5,1],[0.25,1],[0,1],[0,0.75],[0,0.5],[0,0.25]];outlineConnect=0;gradientColor=none;html=1;whiteSpace=wrap;fontSize=12;fontStyle=0;container=1;pointerEvents=0;collapsible=0;recursiveResize=0;shape=mxgraph.aws4.group;grIcon=mxgraph.aws4.group_security_group;grStroke=0;strokeColor=#00A4A6;fillColor=#E6F6F7;verticalAlign=top;align=left;spacingLeft=30;fontColor=#147EBA;dashed=0;" vertex="1" parent="-9UJIUt_7y069LJeyWJl-4">
          <mxGeometry x="220" y="30" width="280" height="120" as="geometry" />
        </mxCell>
        <mxCell id="-9UJIUt_7y069LJeyWJl-56" value="" style="outlineConnect=0;gradientColor=none;html=1;whiteSpace=wrap;fontSize=12;fontStyle=0;strokeColor=#879196;fillColor=none;verticalAlign=top;align=center;fontColor=#879196;dashed=1;spacingTop=3;" vertex="1" parent="-9UJIUt_7y069LJeyWJl-6">
          <mxGeometry x="30" y="27.88" width="200" height="72.12" as="geometry" />
        </mxCell>
        <mxCell id="-9UJIUt_7y069LJeyWJl-69" value="" style="sketch=0;points=[[0,0,0],[0.25,0,0],[0.5,0,0],[0.75,0,0],[1,0,0],[0,1,0],[0.25,1,0],[0.5,1,0],[0.75,1,0],[1,1,0],[0,0.25,0],[0,0.5,0],[0,0.75,0],[1,0.25,0],[1,0.5,0],[1,0.75,0]];outlineConnect=0;fontColor=#232F3E;fillColor=#ED7100;strokeColor=#ffffff;dashed=0;verticalLabelPosition=bottom;verticalAlign=top;align=center;html=1;fontSize=12;fontStyle=0;aspect=fixed;shape=mxgraph.aws4.resourceIcon;resIcon=mxgraph.aws4.ec2;" vertex="1" parent="-9UJIUt_7y069LJeyWJl-6">
          <mxGeometry x="55" y="35" width="55" height="55" as="geometry" />
        </mxCell>
        <mxCell id="-9UJIUt_7y069LJeyWJl-70" value="" style="sketch=0;points=[[0,0,0],[0.25,0,0],[0.5,0,0],[0.75,0,0],[1,0,0],[0,1,0],[0.25,1,0],[0.5,1,0],[0.75,1,0],[1,1,0],[0,0.25,0],[0,0.5,0],[0,0.75,0],[1,0.25,0],[1,0.5,0],[1,0.75,0]];outlineConnect=0;fontColor=#232F3E;fillColor=#ED7100;strokeColor=#ffffff;dashed=0;verticalLabelPosition=bottom;verticalAlign=top;align=center;html=1;fontSize=12;fontStyle=0;aspect=fixed;shape=mxgraph.aws4.resourceIcon;resIcon=mxgraph.aws4.ec2;" vertex="1" parent="-9UJIUt_7y069LJeyWJl-6">
          <mxGeometry x="150" y="35" width="55" height="55" as="geometry" />
        </mxCell>
        <mxCell id="-9UJIUt_7y069LJeyWJl-80" value="GPU machines" style="text;html=1;align=center;verticalAlign=middle;whiteSpace=wrap;rounded=0;" vertex="1" parent="-9UJIUt_7y069LJeyWJl-6">
          <mxGeometry x="57" y="5" width="130" height="30" as="geometry" />
        </mxCell>
        <mxCell id="-9UJIUt_7y069LJeyWJl-7" value="Public subnet" style="points=[[0,0],[0.25,0],[0.5,0],[0.75,0],[1,0],[1,0.25],[1,0.5],[1,0.75],[1,1],[0.75,1],[0.5,1],[0.25,1],[0,1],[0,0.75],[0,0.5],[0,0.25]];outlineConnect=0;gradientColor=none;html=1;whiteSpace=wrap;fontSize=12;fontStyle=0;container=1;pointerEvents=0;collapsible=0;recursiveResize=0;shape=mxgraph.aws4.group;grIcon=mxgraph.aws4.group_security_group;grStroke=0;strokeColor=#7AA116;fillColor=#F2F6E8;verticalAlign=top;align=left;spacingLeft=30;fontColor=#248814;dashed=0;" vertex="1" parent="-9UJIUt_7y069LJeyWJl-4">
          <mxGeometry x="70" y="30" width="130" height="120" as="geometry" />
        </mxCell>
        <mxCell id="-9UJIUt_7y069LJeyWJl-8" value="Private subnet" style="points=[[0,0],[0.25,0],[0.5,0],[0.75,0],[1,0],[1,0.25],[1,0.5],[1,0.75],[1,1],[0.75,1],[0.5,1],[0.25,1],[0,1],[0,0.75],[0,0.5],[0,0.25]];outlineConnect=0;gradientColor=none;html=1;whiteSpace=wrap;fontSize=12;fontStyle=0;container=1;pointerEvents=0;collapsible=0;recursiveResize=0;shape=mxgraph.aws4.group;grIcon=mxgraph.aws4.group_security_group;grStroke=0;strokeColor=#00A4A6;fillColor=#E6F6F7;verticalAlign=top;align=left;spacingLeft=30;fontColor=#147EBA;dashed=0;" vertex="1" parent="-9UJIUt_7y069LJeyWJl-4">
          <mxGeometry x="520" y="30" width="130" height="120" as="geometry" />
        </mxCell>
        <mxCell id="-9UJIUt_7y069LJeyWJl-11" value="Availability Zone" style="fillColor=none;strokeColor=#147EBA;dashed=1;verticalAlign=top;fontStyle=0;fontColor=#147EBA;whiteSpace=wrap;html=1;direction=east;" vertex="1" parent="-9UJIUt_7y069LJeyWJl-4">
          <mxGeometry x="50" y="180" width="620" height="140" as="geometry" />
        </mxCell>
        <mxCell id="-9UJIUt_7y069LJeyWJl-12" value="Availability Zone" style="fillColor=none;strokeColor=#147EBA;dashed=1;verticalAlign=top;fontStyle=0;fontColor=#147EBA;whiteSpace=wrap;html=1;direction=east;" vertex="1" parent="-9UJIUt_7y069LJeyWJl-4">
          <mxGeometry x="50" y="340" width="620" height="140" as="geometry" />
        </mxCell>
        <mxCell id="-9UJIUt_7y069LJeyWJl-13" value="Public subnet" style="points=[[0,0],[0.25,0],[0.5,0],[0.75,0],[1,0],[1,0.25],[1,0.5],[1,0.75],[1,1],[0.75,1],[0.5,1],[0.25,1],[0,1],[0,0.75],[0,0.5],[0,0.25]];outlineConnect=0;gradientColor=none;html=1;whiteSpace=wrap;fontSize=12;fontStyle=0;container=1;pointerEvents=0;collapsible=0;recursiveResize=0;shape=mxgraph.aws4.group;grIcon=mxgraph.aws4.group_security_group;grStroke=0;strokeColor=#7AA116;fillColor=#F2F6E8;verticalAlign=top;align=left;spacingLeft=30;fontColor=#248814;dashed=0;" vertex="1" parent="-9UJIUt_7y069LJeyWJl-4">
          <mxGeometry x="70" y="190" width="130" height="120" as="geometry" />
        </mxCell>
        <mxCell id="-9UJIUt_7y069LJeyWJl-14" value="" style="sketch=0;outlineConnect=0;fontColor=#232F3E;gradientColor=none;fillColor=#8C4FFF;strokeColor=none;dashed=0;verticalLabelPosition=bottom;verticalAlign=top;align=center;html=1;fontSize=12;fontStyle=0;aspect=fixed;pointerEvents=1;shape=mxgraph.aws4.application_load_balancer;" vertex="1" parent="-9UJIUt_7y069LJeyWJl-13">
          <mxGeometry x="40" y="45" width="50" height="50" as="geometry" />
        </mxCell>
        <mxCell id="-9UJIUt_7y069LJeyWJl-15" value="ALB" style="text;html=1;align=center;verticalAlign=middle;whiteSpace=wrap;rounded=0;" vertex="1" parent="-9UJIUt_7y069LJeyWJl-13">
          <mxGeometry x="35" y="90" width="60" height="30" as="geometry" />
        </mxCell>
        <mxCell id="-9UJIUt_7y069LJeyWJl-16" value="Public subnet" style="points=[[0,0],[0.25,0],[0.5,0],[0.75,0],[1,0],[1,0.25],[1,0.5],[1,0.75],[1,1],[0.75,1],[0.5,1],[0.25,1],[0,1],[0,0.75],[0,0.5],[0,0.25]];outlineConnect=0;gradientColor=none;html=1;whiteSpace=wrap;fontSize=12;fontStyle=0;container=1;pointerEvents=0;collapsible=0;recursiveResize=0;shape=mxgraph.aws4.group;grIcon=mxgraph.aws4.group_security_group;grStroke=0;strokeColor=#7AA116;fillColor=#F2F6E8;verticalAlign=top;align=left;spacingLeft=30;fontColor=#248814;dashed=0;" vertex="1" parent="-9UJIUt_7y069LJeyWJl-4">
          <mxGeometry x="70" y="350" width="130" height="120" as="geometry" />
        </mxCell>
        <mxCell id="-9UJIUt_7y069LJeyWJl-17" value="Private subnet" style="points=[[0,0],[0.25,0],[0.5,0],[0.75,0],[1,0],[1,0.25],[1,0.5],[1,0.75],[1,1],[0.75,1],[0.5,1],[0.25,1],[0,1],[0,0.75],[0,0.5],[0,0.25]];outlineConnect=0;gradientColor=none;html=1;whiteSpace=wrap;fontSize=12;fontStyle=0;container=1;pointerEvents=0;collapsible=0;recursiveResize=0;shape=mxgraph.aws4.group;grIcon=mxgraph.aws4.group_security_group;grStroke=0;strokeColor=#00A4A6;fillColor=#E6F6F7;verticalAlign=top;align=left;spacingLeft=30;fontColor=#147EBA;dashed=0;" vertex="1" parent="-9UJIUt_7y069LJeyWJl-4">
          <mxGeometry x="220" y="190" width="280" height="120" as="geometry" />
        </mxCell>
        <mxCell id="-9UJIUt_7y069LJeyWJl-51" value="" style="outlineConnect=0;gradientColor=none;html=1;whiteSpace=wrap;fontSize=12;fontStyle=0;strokeColor=#879196;fillColor=none;verticalAlign=top;align=center;fontColor=#879196;dashed=1;spacingTop=3;" vertex="1" parent="-9UJIUt_7y069LJeyWJl-17">
          <mxGeometry x="25" y="45" width="220" height="70" as="geometry" />
        </mxCell>
        <mxCell id="-9UJIUt_7y069LJeyWJl-71" value="" style="sketch=0;points=[[0,0,0],[0.25,0,0],[0.5,0,0],[0.75,0,0],[1,0,0],[0,1,0],[0.25,1,0],[0.5,1,0],[0.75,1,0],[1,1,0],[0,0.25,0],[0,0.5,0],[0,0.75,0],[1,0.25,0],[1,0.5,0],[1,0.75,0]];outlineConnect=0;fontColor=#232F3E;fillColor=#ED7100;strokeColor=#ffffff;dashed=0;verticalLabelPosition=bottom;verticalAlign=top;align=center;html=1;fontSize=12;fontStyle=0;aspect=fixed;shape=mxgraph.aws4.resourceIcon;resIcon=mxgraph.aws4.ec2;" vertex="1" parent="-9UJIUt_7y069LJeyWJl-17">
          <mxGeometry x="57" y="50" width="55" height="55" as="geometry" />
        </mxCell>
        <mxCell id="-9UJIUt_7y069LJeyWJl-72" value="" style="sketch=0;points=[[0,0,0],[0.25,0,0],[0.5,0,0],[0.75,0,0],[1,0,0],[0,1,0],[0.25,1,0],[0.5,1,0],[0.75,1,0],[1,1,0],[0,0.25,0],[0,0.5,0],[0,0.75,0],[1,0.25,0],[1,0.5,0],[1,0.75,0]];outlineConnect=0;fontColor=#232F3E;fillColor=#ED7100;strokeColor=#ffffff;dashed=0;verticalLabelPosition=bottom;verticalAlign=top;align=center;html=1;fontSize=12;fontStyle=0;aspect=fixed;shape=mxgraph.aws4.resourceIcon;resIcon=mxgraph.aws4.ec2;" vertex="1" parent="-9UJIUt_7y069LJeyWJl-17">
          <mxGeometry x="150" y="52.5" width="55" height="55" as="geometry" />
        </mxCell>
        <mxCell id="-9UJIUt_7y069LJeyWJl-18" value="Private subnet" style="points=[[0,0],[0.25,0],[0.5,0],[0.75,0],[1,0],[1,0.25],[1,0.5],[1,0.75],[1,1],[0.75,1],[0.5,1],[0.25,1],[0,1],[0,0.75],[0,0.5],[0,0.25]];outlineConnect=0;gradientColor=none;html=1;whiteSpace=wrap;fontSize=12;fontStyle=0;container=1;pointerEvents=0;collapsible=0;recursiveResize=0;shape=mxgraph.aws4.group;grIcon=mxgraph.aws4.group_security_group;grStroke=0;strokeColor=#00A4A6;fillColor=#E6F6F7;verticalAlign=top;align=left;spacingLeft=30;fontColor=#147EBA;dashed=0;" vertex="1" parent="-9UJIUt_7y069LJeyWJl-4">
          <mxGeometry x="220" y="350" width="280" height="120" as="geometry" />
        </mxCell>
        <mxCell id="-9UJIUt_7y069LJeyWJl-19" value="Private subnet" style="points=[[0,0],[0.25,0],[0.5,0],[0.75,0],[1,0],[1,0.25],[1,0.5],[1,0.75],[1,1],[0.75,1],[0.5,1],[0.25,1],[0,1],[0,0.75],[0,0.5],[0,0.25]];outlineConnect=0;gradientColor=none;html=1;whiteSpace=wrap;fontSize=12;fontStyle=0;container=1;pointerEvents=0;collapsible=0;recursiveResize=0;shape=mxgraph.aws4.group;grIcon=mxgraph.aws4.group_security_group;grStroke=0;strokeColor=#00A4A6;fillColor=#E6F6F7;verticalAlign=top;align=left;spacingLeft=30;fontColor=#147EBA;dashed=0;" vertex="1" parent="-9UJIUt_7y069LJeyWJl-4">
          <mxGeometry x="520" y="190" width="130" height="120" as="geometry" />
        </mxCell>
        <mxCell id="-9UJIUt_7y069LJeyWJl-76" value="" style="sketch=0;outlineConnect=0;fontColor=#232F3E;gradientColor=none;fillColor=#C925D1;strokeColor=none;dashed=0;verticalLabelPosition=bottom;verticalAlign=top;align=center;html=1;fontSize=12;fontStyle=0;aspect=fixed;pointerEvents=1;shape=mxgraph.aws4.rds_postgresql_instance;" vertex="1" parent="-9UJIUt_7y069LJeyWJl-19">
          <mxGeometry x="37.5" y="32.5" width="55" height="55" as="geometry" />
        </mxCell>
        <mxCell id="-9UJIUt_7y069LJeyWJl-20" value="Private subnet" style="points=[[0,0],[0.25,0],[0.5,0],[0.75,0],[1,0],[1,0.25],[1,0.5],[1,0.75],[1,1],[0.75,1],[0.5,1],[0.25,1],[0,1],[0,0.75],[0,0.5],[0,0.25]];outlineConnect=0;gradientColor=none;html=1;whiteSpace=wrap;fontSize=12;fontStyle=0;container=1;pointerEvents=0;collapsible=0;recursiveResize=0;shape=mxgraph.aws4.group;grIcon=mxgraph.aws4.group_security_group;grStroke=0;strokeColor=#00A4A6;fillColor=#E6F6F7;verticalAlign=top;align=left;spacingLeft=30;fontColor=#147EBA;dashed=0;" vertex="1" parent="-9UJIUt_7y069LJeyWJl-4">
          <mxGeometry x="520" y="350" width="130" height="120" as="geometry" />
        </mxCell>
        <mxCell id="-9UJIUt_7y069LJeyWJl-21" value="" style="sketch=0;outlineConnect=0;fontColor=#232F3E;gradientColor=none;fillColor=#8C4FFF;strokeColor=none;dashed=0;verticalLabelPosition=bottom;verticalAlign=top;align=center;html=1;fontSize=12;fontStyle=0;aspect=fixed;pointerEvents=1;shape=mxgraph.aws4.nat_gateway;" vertex="1" parent="-9UJIUt_7y069LJeyWJl-4">
          <mxGeometry x="110" y="65" width="50" height="50" as="geometry" />
        </mxCell>
        <mxCell id="-9UJIUt_7y069LJeyWJl-22" value="" style="sketch=0;outlineConnect=0;fontColor=#232F3E;gradientColor=none;fillColor=#8C4FFF;strokeColor=none;dashed=0;verticalLabelPosition=bottom;verticalAlign=top;align=center;html=1;fontSize=12;fontStyle=0;aspect=fixed;pointerEvents=1;shape=mxgraph.aws4.nat_gateway;" vertex="1" parent="-9UJIUt_7y069LJeyWJl-4">
          <mxGeometry x="110" y="385" width="50" height="50" as="geometry" />
        </mxCell>
        <mxCell id="-9UJIUt_7y069LJeyWJl-23" value="NAT Gateway" style="text;html=1;align=center;verticalAlign=middle;whiteSpace=wrap;rounded=0;" vertex="1" parent="-9UJIUt_7y069LJeyWJl-4">
          <mxGeometry x="85" y="435" width="105" height="30" as="geometry" />
        </mxCell>
        <mxCell id="-9UJIUt_7y069LJeyWJl-24" value="NAT Gateway" style="text;html=1;align=center;verticalAlign=middle;whiteSpace=wrap;rounded=0;" vertex="1" parent="-9UJIUt_7y069LJeyWJl-4">
          <mxGeometry x="85" y="115" width="105" height="30" as="geometry" />
        </mxCell>
        <mxCell id="-9UJIUt_7y069LJeyWJl-26" value="VPC Endpoint" style="text;html=1;align=center;verticalAlign=middle;whiteSpace=wrap;rounded=0;" vertex="1" parent="-9UJIUt_7y069LJeyWJl-4">
          <mxGeometry x="-30" y="290" width="60" height="30" as="geometry" />
        </mxCell>
        <mxCell id="-9UJIUt_7y069LJeyWJl-27" value="PostgreSQL" style="text;html=1;align=center;verticalAlign=middle;whiteSpace=wrap;rounded=0;" vertex="1" parent="-9UJIUt_7y069LJeyWJl-4">
          <mxGeometry x="555" y="275" width="60" height="30" as="geometry" />
        </mxCell>
        <mxCell id="-9UJIUt_7y069LJeyWJl-61" style="edgeStyle=orthogonalEdgeStyle;rounded=0;orthogonalLoop=1;jettySize=auto;html=1;entryX=0.011;entryY=0.353;entryDx=0;entryDy=0;entryPerimeter=0;" edge="1" parent="-9UJIUt_7y069LJeyWJl-4" source="-9UJIUt_7y069LJeyWJl-14" target="-9UJIUt_7y069LJeyWJl-51">
          <mxGeometry relative="1" as="geometry" />
        </mxCell>
        <mxCell id="-9UJIUt_7y069LJeyWJl-81" value="GPU machines" style="text;html=1;align=center;verticalAlign=middle;whiteSpace=wrap;rounded=0;" vertex="1" parent="-9UJIUt_7y069LJeyWJl-4">
          <mxGeometry x="276.5" y="210" width="130" height="30" as="geometry" />
        </mxCell>
        <mxCell id="-9UJIUt_7y069LJeyWJl-82" value="GPU machines" style="text;html=1;align=center;verticalAlign=middle;whiteSpace=wrap;rounded=0;" vertex="1" parent="-9UJIUt_7y069LJeyWJl-4">
          <mxGeometry x="270" y="360" width="130" height="30" as="geometry" />
        </mxCell>
        <mxCell id="-9UJIUt_7y069LJeyWJl-79" style="edgeStyle=orthogonalEdgeStyle;rounded=0;orthogonalLoop=1;jettySize=auto;html=1;dashed=1;" edge="1" parent="-9UJIUt_7y069LJeyWJl-3" source="-9UJIUt_7y069LJeyWJl-30" target="-9UJIUt_7y069LJeyWJl-15">
          <mxGeometry relative="1" as="geometry" />
        </mxCell>
        <mxCell id="-9UJIUt_7y069LJeyWJl-30" value="" style="sketch=0;points=[[0,0,0],[0.25,0,0],[0.5,0,0],[0.75,0,0],[1,0,0],[0,1,0],[0.25,1,0],[0.5,1,0],[0.75,1,0],[1,1,0],[0,0.25,0],[0,0.5,0],[0,0.75,0],[1,0.25,0],[1,0.5,0],[1,0.75,0]];outlineConnect=0;fontColor=#232F3E;fillColor=#DD344C;strokeColor=#ffffff;dashed=0;verticalLabelPosition=bottom;verticalAlign=top;align=center;html=1;fontSize=12;fontStyle=0;aspect=fixed;shape=mxgraph.aws4.resourceIcon;resIcon=mxgraph.aws4.certificate_manager_3;" vertex="1" parent="-9UJIUt_7y069LJeyWJl-3">
          <mxGeometry x="170" y="360" width="50" height="50" as="geometry" />
        </mxCell>
        <mxCell id="-9UJIUt_7y069LJeyWJl-32" value="" style="sketch=0;outlineConnect=0;fontColor=#232F3E;gradientColor=none;fillColor=#8C4FFF;strokeColor=none;dashed=0;verticalLabelPosition=bottom;verticalAlign=top;align=center;html=1;fontSize=12;fontStyle=0;aspect=fixed;pointerEvents=1;shape=mxgraph.aws4.endpoints;" vertex="1" parent="-9UJIUt_7y069LJeyWJl-3">
          <mxGeometry x="290" y="255" width="50" height="50" as="geometry" />
        </mxCell>
        <mxCell id="-9UJIUt_7y069LJeyWJl-33" style="edgeStyle=orthogonalEdgeStyle;rounded=0;orthogonalLoop=1;jettySize=auto;html=1;" edge="1" parent="-9UJIUt_7y069LJeyWJl-3" source="-9UJIUt_7y069LJeyWJl-32" target="-9UJIUt_7y069LJeyWJl-14">
          <mxGeometry relative="1" as="geometry" />
        </mxCell>
        <mxCell id="-9UJIUt_7y069LJeyWJl-34" value="" style="sketch=0;points=[[0,0,0],[0.25,0,0],[0.5,0,0],[0.75,0,0],[1,0,0],[0,1,0],[0.25,1,0],[0.5,1,0],[0.75,1,0],[1,1,0],[0,0.25,0],[0,0.5,0],[0,0.75,0],[1,0.25,0],[1,0.5,0],[1,0.75,0]];outlineConnect=0;fontColor=#232F3E;fillColor=#E7157B;strokeColor=#ffffff;dashed=0;verticalLabelPosition=bottom;verticalAlign=top;align=center;html=1;fontSize=12;fontStyle=0;aspect=fixed;shape=mxgraph.aws4.resourceIcon;resIcon=mxgraph.aws4.api_gateway;" vertex="1" parent="-9UJIUt_7y069LJeyWJl-3">
          <mxGeometry x="160" y="255" width="50" height="50" as="geometry" />
        </mxCell>
        <mxCell id="-9UJIUt_7y069LJeyWJl-35" style="edgeStyle=orthogonalEdgeStyle;rounded=0;orthogonalLoop=1;jettySize=auto;html=1;" edge="1" parent="-9UJIUt_7y069LJeyWJl-3" source="-9UJIUt_7y069LJeyWJl-34" target="-9UJIUt_7y069LJeyWJl-32">
          <mxGeometry relative="1" as="geometry" />
        </mxCell>
        <mxCell id="-9UJIUt_7y069LJeyWJl-78" style="edgeStyle=orthogonalEdgeStyle;rounded=0;orthogonalLoop=1;jettySize=auto;html=1;" edge="1" parent="-9UJIUt_7y069LJeyWJl-3" source="-9UJIUt_7y069LJeyWJl-37" target="-9UJIUt_7y069LJeyWJl-34">
          <mxGeometry relative="1" as="geometry" />
        </mxCell>
        <mxCell id="-9UJIUt_7y069LJeyWJl-37" value="" style="sketch=0;points=[[0,0,0],[0.25,0,0],[0.5,0,0],[0.75,0,0],[1,0,0],[0,1,0],[0.25,1,0],[0.5,1,0],[0.75,1,0],[1,1,0],[0,0.25,0],[0,0.5,0],[0,0.75,0],[1,0.25,0],[1,0.5,0],[1,0.75,0]];outlineConnect=0;fontColor=#232F3E;fillColor=#8C4FFF;strokeColor=#ffffff;dashed=0;verticalLabelPosition=bottom;verticalAlign=top;align=center;html=1;fontSize=12;fontStyle=0;aspect=fixed;shape=mxgraph.aws4.resourceIcon;resIcon=mxgraph.aws4.route_53;" vertex="1" parent="-9UJIUt_7y069LJeyWJl-3">
          <mxGeometry x="20" y="255" width="50" height="50" as="geometry" />
        </mxCell>
        <mxCell id="-9UJIUt_7y069LJeyWJl-38" value="API Gateway" style="text;html=1;align=center;verticalAlign=middle;whiteSpace=wrap;rounded=0;" vertex="1" parent="-9UJIUt_7y069LJeyWJl-3">
          <mxGeometry x="155" y="305" width="60" height="30" as="geometry" />
        </mxCell>
        <mxCell id="-9UJIUt_7y069LJeyWJl-43" value="SSL" style="text;html=1;align=center;verticalAlign=middle;whiteSpace=wrap;rounded=0;" vertex="1" parent="-9UJIUt_7y069LJeyWJl-3">
          <mxGeometry x="170" y="410" width="60" height="30" as="geometry" />
        </mxCell>
        <mxCell id="-9UJIUt_7y069LJeyWJl-42" value="Route53&lt;div&gt;&lt;br&gt;&lt;/div&gt;" style="text;html=1;align=center;verticalAlign=middle;whiteSpace=wrap;rounded=0;" vertex="1" parent="1">
          <mxGeometry x="90" y="390" width="60" height="30" as="geometry" />
        </mxCell>
        <mxCell id="-9UJIUt_7y069LJeyWJl-46" value="" style="outlineConnect=0;gradientColor=none;html=1;whiteSpace=wrap;fontSize=12;fontStyle=0;strokeColor=#879196;fillColor=none;verticalAlign=top;align=center;fontColor=#879196;dashed=1;spacingTop=3;" vertex="1" parent="1">
          <mxGeometry x="645" y="480" width="205" height="70" as="geometry" />
        </mxCell>
        <mxCell id="-9UJIUt_7y069LJeyWJl-63" value="" style="rounded=0;whiteSpace=wrap;html=1;" vertex="1" parent="1">
          <mxGeometry x="1280" y="20" width="160" height="781" as="geometry" />
        </mxCell>
        <mxCell id="-9UJIUt_7y069LJeyWJl-64" value="" style="sketch=0;points=[[0,0,0],[0.25,0,0],[0.5,0,0],[0.75,0,0],[1,0,0],[0,1,0],[0.25,1,0],[0.5,1,0],[0.75,1,0],[1,1,0],[0,0.25,0],[0,0.5,0],[0,0.75,0],[1,0.25,0],[1,0.5,0],[1,0.75,0]];points=[[0,0,0],[0.25,0,0],[0.5,0,0],[0.75,0,0],[1,0,0],[0,1,0],[0.25,1,0],[0.5,1,0],[0.75,1,0],[1,1,0],[0,0.25,0],[0,0.5,0],[0,0.75,0],[1,0.25,0],[1,0.5,0],[1,0.75,0]];outlineConnect=0;fontColor=#232F3E;fillColor=#E7157B;strokeColor=#ffffff;dashed=0;verticalLabelPosition=bottom;verticalAlign=top;align=center;html=1;fontSize=12;fontStyle=0;aspect=fixed;shape=mxgraph.aws4.resourceIcon;resIcon=mxgraph.aws4.cloudwatch_2;" vertex="1" parent="1">
          <mxGeometry x="1320" y="60" width="50" height="50" as="geometry" />
        </mxCell>
        <mxCell id="-9UJIUt_7y069LJeyWJl-65" value="" style="sketch=0;points=[[0,0,0],[0.25,0,0],[0.5,0,0],[0.75,0,0],[1,0,0],[0,1,0],[0.25,1,0],[0.5,1,0],[0.75,1,0],[1,1,0],[0,0.25,0],[0,0.5,0],[0,0.75,0],[1,0.25,0],[1,0.5,0],[1,0.75,0]];outlineConnect=0;fontColor=#232F3E;fillColor=#E7157B;strokeColor=#ffffff;dashed=0;verticalLabelPosition=bottom;verticalAlign=top;align=center;html=1;fontSize=12;fontStyle=0;aspect=fixed;shape=mxgraph.aws4.resourceIcon;resIcon=mxgraph.aws4.sns;" vertex="1" parent="1">
          <mxGeometry x="1322.5" y="170" width="50" height="50" as="geometry" />
        </mxCell>
        <mxCell id="-9UJIUt_7y069LJeyWJl-66" value="" style="sketch=0;outlineConnect=0;fontColor=#232F3E;gradientColor=none;fillColor=#7AA116;strokeColor=none;dashed=0;verticalLabelPosition=bottom;verticalAlign=top;align=center;html=1;fontSize=12;fontStyle=0;aspect=fixed;pointerEvents=1;shape=mxgraph.aws4.bucket_with_objects;" vertex="1" parent="1">
          <mxGeometry x="1327.5" y="480" width="50" height="52" as="geometry" />
        </mxCell>
        <mxCell id="-9UJIUt_7y069LJeyWJl-68" value="" style="sketch=0;points=[[0,0,0],[0.25,0,0],[0.5,0,0],[0.75,0,0],[1,0,0],[0,1,0],[0.25,1,0],[0.5,1,0],[0.75,1,0],[1,1,0],[0,0.25,0],[0,0.5,0],[0,0.75,0],[1,0.25,0],[1,0.5,0],[1,0.75,0]];points=[[0,0,0],[0.25,0,0],[0.5,0,0],[0.75,0,0],[1,0,0],[0,1,0],[0.25,1,0],[0.5,1,0],[0.75,1,0],[1,1,0],[0,0.25,0],[0,0.5,0],[0,0.75,0],[1,0.25,0],[1,0.5,0],[1,0.75,0]];outlineConnect=0;fontColor=#232F3E;fillColor=#E7157B;strokeColor=#ffffff;dashed=0;verticalLabelPosition=bottom;verticalAlign=top;align=center;html=1;fontSize=12;fontStyle=0;aspect=fixed;shape=mxgraph.aws4.resourceIcon;resIcon=mxgraph.aws4.cloudtrail;" vertex="1" parent="1">
          <mxGeometry x="1322.5" y="270" width="50" height="50" as="geometry" />
        </mxCell>
        <mxCell id="-9UJIUt_7y069LJeyWJl-74" value="" style="sketch=0;points=[[0,0,0],[0.25,0,0],[0.5,0,0],[0.75,0,0],[1,0,0],[0,1,0],[0.25,1,0],[0.5,1,0],[0.75,1,0],[1,1,0],[0,0.25,0],[0,0.5,0],[0,0.75,0],[1,0.25,0],[1,0.5,0],[1,0.75,0]];outlineConnect=0;fontColor=#232F3E;fillColor=#ED7100;strokeColor=#ffffff;dashed=0;verticalLabelPosition=bottom;verticalAlign=top;align=center;html=1;fontSize=12;fontStyle=0;aspect=fixed;shape=mxgraph.aws4.resourceIcon;resIcon=mxgraph.aws4.ec2;" vertex="1" parent="1">
          <mxGeometry x="667" y="490" width="55" height="55" as="geometry" />
        </mxCell>
        <mxCell id="-9UJIUt_7y069LJeyWJl-75" value="" style="sketch=0;points=[[0,0,0],[0.25,0,0],[0.5,0,0],[0.75,0,0],[1,0,0],[0,1,0],[0.25,1,0],[0.5,1,0],[0.75,1,0],[1,1,0],[0,0.25,0],[0,0.5,0],[0,0.75,0],[1,0.25,0],[1,0.5,0],[1,0.75,0]];outlineConnect=0;fontColor=#232F3E;fillColor=#ED7100;strokeColor=#ffffff;dashed=0;verticalLabelPosition=bottom;verticalAlign=top;align=center;html=1;fontSize=12;fontStyle=0;aspect=fixed;shape=mxgraph.aws4.resourceIcon;resIcon=mxgraph.aws4.ec2;" vertex="1" parent="1">
          <mxGeometry x="760" y="487.5" width="55" height="55" as="geometry" />
        </mxCell>
        <mxCell id="-9UJIUt_7y069LJeyWJl-83" value="" style="sketch=0;points=[[0,0,0],[0.25,0,0],[0.5,0,0],[0.75,0,0],[1,0,0],[0,1,0],[0.25,1,0],[0.5,1,0],[0.75,1,0],[1,1,0],[0,0.25,0],[0,0.5,0],[0,0.75,0],[1,0.25,0],[1,0.5,0],[1,0.75,0]];outlineConnect=0;fontColor=#232F3E;fillColor=#7AA116;strokeColor=#ffffff;dashed=0;verticalLabelPosition=bottom;verticalAlign=top;align=center;html=1;fontSize=12;fontStyle=0;aspect=fixed;shape=mxgraph.aws4.resourceIcon;resIcon=mxgraph.aws4.s3;" vertex="1" parent="1">
          <mxGeometry x="670" y="640" width="55" height="55" as="geometry" />
        </mxCell>
        <mxCell id="-9UJIUt_7y069LJeyWJl-84" style="edgeStyle=orthogonalEdgeStyle;rounded=0;orthogonalLoop=1;jettySize=auto;html=1;entryX=0.416;entryY=1.014;entryDx=0;entryDy=0;entryPerimeter=0;dashed=1;" edge="1" parent="1" source="-9UJIUt_7y069LJeyWJl-83" target="-9UJIUt_7y069LJeyWJl-12">
          <mxGeometry relative="1" as="geometry" />
        </mxCell>
        <mxCell id="-9UJIUt_7y069LJeyWJl-86" value="Cloudwatch" style="text;html=1;align=center;verticalAlign=middle;whiteSpace=wrap;rounded=0;" vertex="1" parent="1">
          <mxGeometry x="1320" y="120" width="60" height="30" as="geometry" />
        </mxCell>
        <mxCell id="-9UJIUt_7y069LJeyWJl-87" value="SNS" style="text;html=1;align=center;verticalAlign=middle;whiteSpace=wrap;rounded=0;" vertex="1" parent="1">
          <mxGeometry x="1320" y="220" width="60" height="30" as="geometry" />
        </mxCell>
        <mxCell id="-9UJIUt_7y069LJeyWJl-88" value="" style="sketch=0;points=[[0,0,0],[0.25,0,0],[0.5,0,0],[0.75,0,0],[1,0,0],[0,1,0],[0.25,1,0],[0.5,1,0],[0.75,1,0],[1,1,0],[0,0.25,0],[0,0.5,0],[0,0.75,0],[1,0.25,0],[1,0.5,0],[1,0.75,0]];outlineConnect=0;fontColor=#232F3E;fillColor=#DD344C;strokeColor=#ffffff;dashed=0;verticalLabelPosition=bottom;verticalAlign=top;align=center;html=1;fontSize=12;fontStyle=0;aspect=fixed;shape=mxgraph.aws4.resourceIcon;resIcon=mxgraph.aws4.waf;" vertex="1" parent="1">
          <mxGeometry x="1320" y="380" width="55" height="55" as="geometry" />
        </mxCell>
        <mxCell id="-9UJIUt_7y069LJeyWJl-89" value="CLoudtrail" style="text;html=1;align=center;verticalAlign=middle;whiteSpace=wrap;rounded=0;" vertex="1" parent="1">
          <mxGeometry x="1317.5" y="320" width="60" height="30" as="geometry" />
        </mxCell>
        <mxCell id="-9UJIUt_7y069LJeyWJl-91" value="WAF" style="text;html=1;align=center;verticalAlign=middle;whiteSpace=wrap;rounded=0;" vertex="1" parent="1">
          <mxGeometry x="1315" y="435" width="60" height="30" as="geometry" />
        </mxCell>
        <mxCell id="-9UJIUt_7y069LJeyWJl-92" value="" style="sketch=0;points=[[0,0,0],[0.25,0,0],[0.5,0,0],[0.75,0,0],[1,0,0],[0,1,0],[0.25,1,0],[0.5,1,0],[0.75,1,0],[1,1,0],[0,0.25,0],[0,0.5,0],[0,0.75,0],[1,0.25,0],[1,0.5,0],[1,0.75,0]];outlineConnect=0;fontColor=#232F3E;fillColor=#DD344C;strokeColor=#ffffff;dashed=0;verticalLabelPosition=bottom;verticalAlign=top;align=center;html=1;fontSize=12;fontStyle=0;aspect=fixed;shape=mxgraph.aws4.resourceIcon;resIcon=mxgraph.aws4.guardduty;" vertex="1" parent="1">
          <mxGeometry x="1322.5" y="585" width="55" height="55" as="geometry" />
        </mxCell>
        <mxCell id="-9UJIUt_7y069LJeyWJl-93" value="S3 for ALB Logs" style="text;html=1;align=center;verticalAlign=middle;whiteSpace=wrap;rounded=0;" vertex="1" parent="1">
          <mxGeometry x="1315" y="529.2" width="60" height="30" as="geometry" />
        </mxCell>
        <mxCell id="-9UJIUt_7y069LJeyWJl-94" value="GuardDuty" style="text;html=1;align=center;verticalAlign=middle;whiteSpace=wrap;rounded=0;" vertex="1" parent="1">
          <mxGeometry x="1320" y="640" width="60" height="30" as="geometry" />
        </mxCell>
        <mxCell id="-9UJIUt_7y069LJeyWJl-95" value="" style="sketch=0;points=[[0,0,0],[0.25,0,0],[0.5,0,0],[0.75,0,0],[1,0,0],[0,1,0],[0.25,1,0],[0.5,1,0],[0.75,1,0],[1,1,0],[0,0.25,0],[0,0.5,0],[0,0.75,0],[1,0.25,0],[1,0.5,0],[1,0.75,0]];outlineConnect=0;fontColor=#232F3E;fillColor=#DD344C;strokeColor=#ffffff;dashed=0;verticalLabelPosition=bottom;verticalAlign=top;align=center;html=1;fontSize=12;fontStyle=0;aspect=fixed;shape=mxgraph.aws4.resourceIcon;resIcon=mxgraph.aws4.inspector;" vertex="1" parent="1">
          <mxGeometry x="1322.5" y="685" width="55" height="55" as="geometry" />
        </mxCell>
        <mxCell id="-9UJIUt_7y069LJeyWJl-96" value="Inspector" style="text;html=1;align=center;verticalAlign=middle;whiteSpace=wrap;rounded=0;" vertex="1" parent="1">
          <mxGeometry x="1322.5" y="741" width="60" height="30" as="geometry" />
        </mxCell>
      </root>
    </mxGraphModel>
  </diagram>
</mxfile>
